<?xml version="1.0" encoding="utf-8"?>
<!-- Generator: Adobe Illustrator 21.1.0, SVG Export Plug-In . SVG Version: 6.00 Build 0)  -->
<svg version="1.1" id="Слой_1" xmlns="http://www.w3.org/2000/svg" xmlns:xlink="http://www.w3.org/1999/xlink" x="0px" y="0px"
	 viewBox="0 0 584.4 519.5" style="enable-background:new 0 0 584.4 519.5;" xml:space="preserve">
<style type="text/css">
	.st0{fill:#B8CCEB;}
	.st1{fill:#B4C9E9;}
	.st2{fill:#BCCEEC;}
	.st3{fill:#B9CCEB;}
	.st4{fill:#C8D6EF;}
	.st5{fill:#CFDCF2;}
	.st6{fill:#CEDBF1;}
	.st7{fill:#619AD3;}
	.st8{fill:#619AD2;}
</style>
<path class="st0" d="M0,331.1c0.1,0,0.2,0,0.3,0c0.7,1.2,0.7,2.4,0,3.6c-0.1,0-0.2,0-0.3,0C0,333.5,0,332.3,0,331.1z"/>
<path class="st1" d="M0,226.2c0.1,0,0.2,0,0.3,0c0,1.2,0,2.4,0,3.6c-0.1,0-0.2,0-0.3,0C0,228.6,0,227.4,0,226.2z"/>
<path class="st0" d="M0.3,387.3c-0.1,0-0.2,0-0.3,0c0-1.2,0-2.4,0-3.5c0.1,0,0.2,0,0.3,0C1,384.9,1,386.1,0.3,387.3z"/>
<path class="st2" d="M225.7,519.5c0-0.1,0-0.2,0-0.2c1.2-0.8,2.4-0.7,3.6,0c0,0.1,0,0.2,0,0.3C228,519.5,226.8,519.5,225.7,519.5z"
	/>
<path class="st3" d="M0,278.8c0.1,0,0.2,0,0.2,0c0.7,1.1,0.7,2.2,0,3.3c-0.1,0-0.2,0-0.2,0C0,281,0,279.9,0,278.8z"/>
<path class="st4" d="M584.4,240.3c-0.1,0-0.2,0-0.3,0c-0.7-1-0.7-2,0-3c0.1,0,0.2,0,0.3,0C584.4,238.4,584.4,239.4,584.4,240.3z"/>
<path class="st5" d="M584.1,184.8c0.1,0,0.2,0,0.3,0c0,1,0,2,0,2.9c-0.1,0-0.2,0-0.2,0C583.4,186.8,583.5,185.8,584.1,184.8z"/>
<path class="st5" d="M584.4,292.6l-0.1,0l-0.1,0c-0.7-0.9-0.7-1.8,0-2.7c0.1,0,0.2,0,0.2,0C584.4,290.9,584.4,291.8,584.4,292.6z"/>
<path class="st6" d="M584.1,132.5c0.1,0,0.2,0,0.3,0c0,0.9,0,1.8,0,2.6c-0.1,0-0.2,0-0.2,0C584.1,134.3,584.1,133.4,584.1,132.5z"/>
<path class="st7" d="M0.2,282.1c0-1.1,0-2.2,0-3.3c1.2-9.1,11.1-14.3,19.3-9.8c7.2,3.9,14.3,8,21.4,12c15.8,8.9,31.5,17.8,47.3,26.7
	c21.8,12.3,43.5,24.6,65.3,36.9c21,11.8,41.9,23.6,62.9,35.5c3.1,1.7,6.2,3.4,9.2,5.2c1.1,0.7,1.8,0.5,2.7-0.1
	c11.2-7.1,22.5-14.1,33.7-21.1c18.5-11.6,37.1-23.2,55.6-34.8c9-5.6,19.9-0.3,20.6,10.3c0.4,4.9-1.8,8.9-6,11.5
	c-6.1,3.9-12.2,7.7-18.3,11.5c-19.4,12.1-38.8,24.2-58.1,36.3c-7.1,4.5-14.2,9-21.4,13.4c-4.6,2.8-9.4,2.9-14.1,0.2
	c-19.4-10.9-38.9-21.9-58.3-32.9c-21.6-12.2-43.1-24.3-64.7-36.5c-18.7-10.5-37.3-21.1-56-31.6C30,305,18.5,298.5,7,292
	C3.2,289.8,0.8,286.5,0.2,282.1z"/>
<path class="st7" d="M0.3,334.7c0-1.2,0-2.4,0-3.6c1.2-9,11.5-14.1,19.5-9.6c23.8,13.4,47.6,26.9,71.4,40.3
	c18.7,10.6,37.5,21.1,56.2,31.7c23.1,13,46.2,26.1,69.3,39.1c3.1,1.8,6.2,3.5,9.3,5.3c0.8,0.5,1.3,0.2,2-0.2
	c14.7-9.2,29.4-18.4,44.1-27.5c15.3-9.6,30.6-19.2,45.9-28.7c7.8-4.9,17.6-0.9,20,7.9c1.4,5.3-0.8,11-5.7,14.1
	c-9.1,5.8-18.2,11.4-27.4,17.1c-19.3,12.1-38.7,24.2-58,36.3c-4.1,2.6-8.2,5.2-12.3,7.7c-4.7,2.9-9.5,2.9-14.3,0.2
	c-20.4-11.5-40.7-23-61.1-34.5c-20.2-11.4-40.4-22.8-60.6-34.2c-20.1-11.3-40.1-22.6-60.2-34c-10.5-5.9-21-11.8-31.4-17.8
	C3.1,342.3,0.9,339.1,0.3,334.7z"/>
<path class="st7" d="M229.2,519.2c-1.2,0-2.4,0-3.6,0c-2.2-0.2-4.1-1.2-6-2.2c-20.3-11.5-40.6-22.9-60.8-34.3
	c-24.7-13.9-49.3-27.9-74-41.8c-19.3-10.9-38.7-21.8-58-32.7c-6.6-3.8-13.3-7.5-19.9-11.3c-3.7-2.1-5.9-5.3-6.6-9.6
	c0-1.2,0-2.4,0-3.6c1.2-9,11-14.1,19.1-9.8c5.5,2.9,10.9,6.1,16.4,9.2c17.1,9.6,34.2,19.3,51.2,28.9c21.8,12.3,43.5,24.6,65.3,36.9
	c19.3,10.9,38.7,21.8,58,32.7c5.2,2.9,10.3,5.8,15.4,8.8c0.9,0.5,1.5,0.5,2.4-0.1c28.1-17.6,56.2-35.2,84.4-52.8c2-1.2,4-2.5,6-3.7
	c8.1-4.8,18.5,0.3,19.7,9.6c0.7,5.6-1.5,10-6.3,12.9c-11.2,7.1-22.5,14.1-33.7,21.1c-20.2,12.6-40.4,25.3-60.6,37.9
	C235,516.9,232.5,518.9,229.2,519.2z"/>
<path class="st7" d="M584.1,237.4c0,1,0,2,0,3c-0.6,4.3-2.7,7.5-6.3,9.7c-13.1,8.2-26.1,16.4-39.2,24.5c-19.2,12-38.5,23.9-57.6,36
	c-7.2,4.5-15.3,2.3-19.1-3.7c-3.8-6-2.1-14,3.9-17.8c7.1-4.6,14.3-9,21.5-13.5c25.3-15.8,50.7-31.6,76-47.5
	c7.7-4.8,16.6-1.6,19.7,5.5C583.6,234.8,584,236.1,584.1,237.4z"/>
<path class="st7" d="M584.1,184.8c0,1,0,2,0,3c-0.5,4.4-2.7,7.6-6.5,10c-14.1,8.8-28.2,17.6-42.3,26.4
	c-18.2,11.4-36.5,22.8-54.7,34.2c-8.2,5.1-18.3,1-20.4-8.1c-1.2-5.4,1.2-10.9,6.3-14.1c10.3-6.5,20.7-12.9,31-19.4
	c20.2-12.6,40.3-25.2,60.5-37.8c2.1-1.3,4.1-2.6,6.2-3.9C572.4,170.2,582.9,175.3,584.1,184.8z"/>
<path class="st7" d="M584.2,290c0,0.9,0,1.8,0,2.7c-0.5,4.4-2.7,7.7-6.4,10c-10.3,6.4-20.7,12.9-31,19.4
	c-18.9,11.8-37.8,23.6-56.7,35.5c-3.2,2-6.5,4.1-9.7,6.1c-7.9,4.9-17.9,0.7-20-8.3c-1.3-5.3,1.1-10.9,6-14
	c9.8-6.1,19.6-12.3,29.4-18.4c20.2-12.6,40.3-25.2,60.5-37.8c2.5-1.6,5-3.2,7.6-4.8C572.4,275.2,583.1,280.2,584.2,290z"/>
<path class="st8" d="M584.2,132.8c0-5-2.6-8.4-6.8-10.7c-10.2-5.8-20.4-11.5-30.5-17.3c-10.4-5.9-20.8-11.7-31.2-17.6
	c-9.6-5.5-19.3-10.9-28.9-16.3c-9.2-5.2-18.3-10.3-27.5-15.5c-10.4-5.9-20.8-11.7-31.2-17.6c-9.4-5.3-18.8-10.6-28.1-15.9
	c-11.3-6.4-22.6-12.7-33.9-19.1c-2.2-1.3-4.4-2.7-7.1-2.8c-1.4,0-2.7,0-4.1,0c-2.1,0.2-4,1-5.8,2.1c-9.5,5.9-18.9,11.8-28.4,17.8
	c-13,8.1-25.9,16.2-38.9,24.3c-14.5,9.1-29,18.1-43.5,27.2c-15.3,9.5-30.6,19.1-45.8,28.6c-14.8,9.3-29.5,18.5-44.3,27.7
	c-15.3,9.5-30.6,19.1-45.8,28.6c-16.1,10-32.1,20.1-48.2,30.1C38.1,196.6,22,206.7,5.9,216.8c-3.5,2.2-5.8,5.4-5.7,9.8
	c0.1,1.1-0.1,2.1,0.1,3.2c0.6,4.5,3.2,7.7,7,9.9c7.1,4,14.2,8,21.3,12c17.9,10.1,35.7,20.1,53.6,30.2c21.7,12.3,43.5,24.5,65.2,36.8
	c16.4,9.3,32.8,18.5,49.2,27.8c8,4.5,16,9.1,24,13.5c4.8,2.7,9.5,2.4,14.2-0.5c3.8-2.4,7.6-4.8,11.4-7.2
	c20.9-13.1,41.8-26.1,62.7-39.2c7.7-4.8,15.5-9.6,23.1-14.5c5.4-3.4,7.6-9.9,5.5-15.6c-2.7-7.5-12-11.4-20.1-6.3
	c-29.6,18.6-59.2,37.1-88.8,55.6c-1.3,0.8-2.2,0.8-3.5,0.1c-13.4-7.6-26.9-15.2-40.4-22.8c-16.3-9.2-32.6-18.4-49-27.6
	c-18-10.1-36-20.3-53.9-30.4c-13.8-7.8-27.7-15.6-41.5-23.4c-1-0.5-1.3-0.8-0.1-1.6c36.5-22.8,73-45.6,109.5-68.5
	c1-0.6,1.8-0.6,2.8,0c6.7,3.8,13.4,7.6,20.2,11.4c19.3,10.9,38.7,21.8,58,32.7c21.8,12.3,43.6,24.6,65.4,36.9
	c17.9,10.1,35.9,20.3,53.8,30.3c1.3,0.7,1.6,1.5,1.6,2.9c0,49,0,97.9,0,146.9c0,1.2-0.1,2.3,0.2,3.5c2.1,9.4,12.2,13.4,20.5,8.2
	c22.4-14,44.7-28,67.1-41.9c5-3.1,7.4-7.4,7.4-13.2c0-20,0-40,0-59.9c0-31.5,0-63.1,0-94.6c0-5.6-1.9-10.2-6.9-13
	c-9.6-5.5-19.2-10.9-28.9-16.3c-23.2-13.1-46.5-26.2-69.7-39.3c-28.9-16.3-57.9-32.7-86.8-49c-3-1.7-6.1-3.4-9.3-5.2
	c0.5-0.3,0.8-0.6,1.1-0.8c7.3-4.6,14.6-9.1,21.9-13.7c29.3-18.3,58.7-36.7,88-55c0.8-0.5,1.3-0.5,2.1,0c8.6,4.9,17.2,9.7,25.8,14.6
	c25.5,14.4,51,28.7,76.4,43.1c27.4,15.4,54.7,30.9,82.1,46.3c0.8,0.4,1.5,0.9,2.4,1.5c-0.4,0.3-0.6,0.4-0.8,0.6
	c-15.7,9.8-31.4,19.7-47.2,29.5c-10.3,6.4-20.6,12.8-30.9,19.3c-4.9,3.1-7.3,8.7-6.1,14c2.1,9,12,13.1,20,8.3
	c2.2-1.3,4.4-2.7,6.6-4.1c21.2-13.3,42.4-26.5,63.6-39.8c9.2-5.8,18.4-11.5,27.6-17.3c3.6-2.3,5.6-5.5,6-9.7
	C584.4,134.4,584.2,133.6,584.2,132.8z M286.3,151.9c22.4,12.6,44.7,25.3,67.1,37.9c17.8,10,35.5,20,53.3,30.1
	c0.3,0.2,0.6,0.4,1,0.6c-3.4,2.1-6.6,4.2-9.9,6.2c-2.3,1.4-4.6,2.8-6.8,4.3c-4.6,3.1-6.8,8.7-5.5,14c1.3,5.4,5.8,9.2,11.3,9.9
	c3.2,0.4,6-0.3,8.7-1.9c4.5-2.8,9-5.6,13.5-8.4c0.4-0.2,0.7-0.7,1.1-0.5c0.5,0.2,0.3,0.8,0.3,1.2c0,41.2,0,82.4,0,123.5
	c0,0.8-0.2,1.4-1,1.9c-13.5,8.4-27.1,16.9-40.6,25.4c-0.2,0.1-0.3,0.2-0.8,0.3c0-0.7,0-1.2,0-1.8c0-43.5,0-87,0-130.4
	c0-6.1-2.5-10.4-7.9-13.4c-23.3-13-46.5-26.2-69.7-39.3c-19.4-11-38.9-21.9-58.3-32.9c-21.5-12.1-43-24.3-64.5-36.4
	c-0.3-0.2-0.7-0.4-1.1-0.7c3.2-2,6.4-4,9.5-6c10.9-6.8,21.8-13.6,32.7-20.5c0.8-0.5,1.3-0.5,2.1-0.1
	C242.7,127.2,264.5,139.5,286.3,151.9z"/>
</svg>
