<?xml version="1.0" encoding="utf-8"?>
<!-- Generator: Adobe Illustrator 21.1.0, SVG Export Plug-In . SVG Version: 6.00 Build 0)  -->
<svg version="1.1" id="Слой_1" xmlns="http://www.w3.org/2000/svg" xmlns:xlink="http://www.w3.org/1999/xlink" x="0px" y="0px"
	 viewBox="0 0 595 330" style="enable-background:new 0 0 595 330;" xml:space="preserve">
<style type="text/css">
	.st0{clip-path:url(#SVGID_2_);}
	.st1{clip-path:url(#SVGID_6_);}
	.st2{clip-path:url(#SVGID_7_);}
	.st3{clip-path:url(#SVGID_8_);fill:#5A9EEA;}
	.st4{clip-path:url(#SVGID_10_);fill:#5A9EEA;}
	.st5{clip-path:url(#SVGID_12_);fill:#5A9EEA;}
	.st6{clip-path:url(#SVGID_14_);}
	.st7{clip-path:url(#SVGID_17_);}
	.st8{clip-path:url(#SVGID_18_);fill:#5A9EEA;}
	.st9{clip-path:url(#SVGID_20_);fill:#5A9EEA;}
</style>
<g>
	<g>
		<defs>
			<rect id="SVGID_1_" y="0.6" width="592.8" height="329.2"/>
		</defs>
		<clipPath id="SVGID_2_">
			<use xlink:href="#SVGID_1_"  style="overflow:visible;"/>
		</clipPath>
		<g class="st0">
			<g>
				<defs>
					<rect id="SVGID_3_" y="0" width="595" height="330"/>
				</defs>
				<defs>
					<rect id="SVGID_4_" y="0" width="595" height="330"/>
				</defs>
				<defs>
					<rect id="SVGID_5_" y="0" width="595" height="330"/>
				</defs>
				<clipPath id="SVGID_6_">
					<use xlink:href="#SVGID_3_"  style="overflow:visible;"/>
				</clipPath>
				<clipPath id="SVGID_7_" class="st1">
					<use xlink:href="#SVGID_4_"  style="overflow:visible;"/>
				</clipPath>
				<clipPath id="SVGID_8_" class="st2">
					<use xlink:href="#SVGID_5_"  style="overflow:visible;"/>
				</clipPath>
				<path class="st3" d="M565.6,226.7h-210c-5.3,0-9.6-4.3-9.6-9.6s4.3-9.6,9.6-9.6h210c4.4,0,8-3.6,8-8V27.8c0-4.4-3.6-8-8-8H281
					c-4.4,0-8,3.6-8,8v112.3c0,5.3-4.3,9.6-9.6,9.6c-5.3,0-9.6-4.3-9.6-9.6V27.8c0-15,12.2-27.2,27.2-27.2h284.6
					c15,0,27.2,12.2,27.2,27.2v171.7C592.8,214.5,580.6,226.7,565.6,226.7"/>
				<path class="st3" d="M583.2,123.2H263.4c-5.3,0-9.6-4.3-9.6-9.6V57.2c0-5.3,4.3-9.6,9.6-9.6h319.8c5.3,0,9.6,4.3,9.6,9.6v56.4
					C592.8,118.9,588.5,123.2,583.2,123.2 M273,104.1h300.7V66.8H273V104.1z"/>
				<path class="st3" d="M291.3,330h-66.8c-18.8,0-35.3-11.3-42.2-28.2H84.7c-5.2,0-9.4-4.2-9.4-9.4V170.1c0-5.2,4.2-9.4,9.4-9.4
					h97.6c7-16.9,23.4-28.2,42.2-28.2h222.3c18.2,0,32.9,14.8,32.9,32.9s-14.8,32.9-32.9,32.9h-81.1l-8.3,66.1
					C357.1,300.6,327.6,330,291.3,330 M94.1,283h95.1c4.4,0,8.2,3,9.2,7.3c2.8,12.3,13.6,20.9,26.2,20.9h66.8
					c26.1,0,47.4-21.2,47.4-47.4c0-0.4,0-0.8,0.1-1.2l9.4-74.9c0.6-4.7,4.6-8.2,9.3-8.2H447c7.8,0,14.1-6.3,14.1-14.1
					s-6.3-14.1-14.1-14.1H224.5c-12.6,0-23.4,8.6-26.2,20.9c-1,4.3-4.8,7.3-9.2,7.3h-95V283L94.1,283z"/>
			</g>
		</g>
		<g class="st0">
			<g>
				<defs>
					<rect id="SVGID_9_" y="0" width="595" height="330"/>
				</defs>
				<clipPath id="SVGID_10_">
					<use xlink:href="#SVGID_9_"  style="overflow:visible;"/>
				</clipPath>
				<path class="st4" d="M357.5,198.3h-47c-5.2,0-9.4-4.2-9.4-9.4s4.2-9.4,9.4-9.4h47c5.2,0,9.4,4.2,9.4,9.4
					S362.7,198.3,357.5,198.3"/>
			</g>
			<g>
				<defs>
					<rect id="SVGID_11_" y="0" width="595" height="330"/>
				</defs>
				<clipPath id="SVGID_12_">
					<use xlink:href="#SVGID_11_"  style="overflow:visible;"/>
				</clipPath>
				<path class="st5" d="M348.1,235.9h-28.2c-5.2,0-9.4-4.2-9.4-9.4s4.2-9.4,9.4-9.4h28.2c5.2,0,9.4,4.2,9.4,9.4
					S353.2,235.9,348.1,235.9"/>
			</g>
		</g>
		<g class="st0">
			<defs>
				<rect id="SVGID_13_" y="0.6" width="592.8" height="329.2"/>
			</defs>
			<clipPath id="SVGID_14_">
				<use xlink:href="#SVGID_13_"  style="overflow:visible;"/>
			</clipPath>
			<g class="st6">
				<g>
					<defs>
						<rect id="SVGID_15_" y="0" width="595" height="330"/>
					</defs>
					<defs>
						<rect id="SVGID_16_" y="0" width="595" height="330"/>
					</defs>
					<clipPath id="SVGID_17_">
						<use xlink:href="#SVGID_15_"  style="overflow:visible;"/>
					</clipPath>
					<clipPath id="SVGID_18_" class="st7">
						<use xlink:href="#SVGID_16_"  style="overflow:visible;"/>
					</clipPath>
					<path class="st8" d="M348.1,273.6h-28.2c-5.2,0-9.4-4.2-9.4-9.4c0-5.2,4.2-9.4,9.4-9.4h28.2c5.2,0,9.4,4.2,9.4,9.4
						C357.5,269.3,353.2,273.6,348.1,273.6"/>
					<path class="st8" d="M84.7,330H9.4c-5.2,0-9.4-4.2-9.4-9.4V141.9c0-5.2,4.2-9.4,9.4-9.4h75.3c5.2,0,9.4,4.2,9.4,9.4v178.7
						C94.1,325.8,89.9,330,84.7,330 M18.8,311.2h56.4V151.3H18.8V311.2z"/>
				</g>
			</g>
			<g class="st6">
				<defs>
					<rect id="SVGID_19_" y="0" width="595" height="330"/>
				</defs>
				<clipPath id="SVGID_20_">
					<use xlink:href="#SVGID_19_"  style="overflow:visible;"/>
				</clipPath>
				<path class="st9" d="M47,301.8c-10.4,0-18.8-8.4-18.8-18.8s8.4-18.8,18.8-18.8s18.8,8.4,18.8,18.8
					C65.8,293.3,57.4,301.8,47,301.8 M47,283L47,283L47,283z M47,283L47,283L47,283z M47,283L47,283L47,283z M47,283L47,283L47,283z
					 M47,283L47,283z M47,283L47,283L47,283z M47,283L47,283L47,283z M47,283L47,283L47,283z"/>
			</g>
		</g>
	</g>
</g>
</svg>
