<?xml version="1.0" encoding="utf-8"?>
<!-- Generator: Adobe Illustrator 21.1.0, SVG Export Plug-In . SVG Version: 6.00 Build 0)  -->
<svg version="1.1" id="Слой_1" xmlns="http://www.w3.org/2000/svg" xmlns:xlink="http://www.w3.org/1999/xlink" x="0px" y="0px"
	 viewBox="0 0 595 594" style="enable-background:new 0 0 595 594;" xml:space="preserve">
<style type="text/css">
	.st0{clip-path:url(#SVGID_2_);}
	.st1{clip-path:url(#SVGID_4_);fill:#5A9EEA;}
	.st2{clip-path:url(#SVGID_6_);fill:#5A9EEA;}
	.st3{clip-path:url(#SVGID_8_);fill:#5A9EEA;}
	.st4{clip-path:url(#SVGID_10_);fill:#5A9EEA;}
	.st5{clip-path:url(#SVGID_12_);fill:#5A9EEA;}
	.st6{clip-path:url(#SVGID_14_);fill:#5A9EEA;}
	.st7{clip-path:url(#SVGID_16_);fill:#5A9EEA;}
	.st8{clip-path:url(#SVGID_18_);fill:#5A9EEA;}
	.st9{clip-path:url(#SVGID_20_);fill:#5A9EEA;}
	.st10{clip-path:url(#SVGID_22_);fill:#5A9EEA;}
	.st11{clip-path:url(#SVGID_24_);}
	.st12{clip-path:url(#SVGID_29_);}
	.st13{clip-path:url(#SVGID_30_);}
	.st14{clip-path:url(#SVGID_31_);}
	.st15{clip-path:url(#SVGID_32_);fill:#5A9EEA;}
	.st16{clip-path:url(#SVGID_34_);}
	.st17{fill:#5A9EEA;}
	.st18{font-family:'MyriadPro-BoldCond';}
	.st19{font-size:266.6272px;}
</style>
<g>
	<defs>
		<rect id="SVGID_1_" y="0" width="594.1" height="594"/>
	</defs>
	<clipPath id="SVGID_2_">
		<use xlink:href="#SVGID_1_"  style="overflow:visible;"/>
	</clipPath>
	<g class="st0">
		<g>
			<defs>
				<rect id="SVGID_3_" y="1" width="595" height="593"/>
			</defs>
			<clipPath id="SVGID_4_">
				<use xlink:href="#SVGID_3_"  style="overflow:visible;"/>
			</clipPath>
			<path class="st1" d="M593,253l-17.6-35.2l17.6-35.2c2.4-4.9,0.5-10.8-4.4-13.3c-1.4-0.7-2.9-1.1-4.5-1H69.3
				C31,168.4,0,199.4,0,237.6v178.2c0,5.5,4.4,9.9,9.9,9.9h99v-19.8H19.8V286c5.7,5.8,12.4,10.6,19.8,14.1v56.3
				c0,5.5,4.4,9.9,9.9,9.9c2,0,3.9-0.6,5.5-1.7l24.2-16.2l24.2,16.1c4.5,3,10.7,1.8,13.7-2.7c1.1-1.6,1.7-3.5,1.7-5.5V287h-1.1
				c0.4-0.4,0.7-0.7,1.1-1.1v1.1h69.3c5.5,0,9.9-4.4,9.9-9.9c0-2-0.6-3.9-1.7-5.5l-16.2-24.2l16.1-24.2c3-4.5,1.8-10.7-2.7-13.7
				c-1.6-1.1-3.5-1.7-5.5-1.7h-56.3c-3.5-7.4-8.3-14.1-14.1-19.8H568l-12.6,25.3c-1.4,2.8-1.4,6.1,0,8.9l17.6,35.2l-17.6,35.2
				c-1.4,2.8-1.4,6.1,0,8.9l17.6,35.2l-17.6,35.2c-1.4,2.8-1.4,6.1,0,8.9l12.6,25.3H316.8v19.8h267.3c5.5,0,9.9-4.4,10-9.8
				c0-1.6-0.3-3.1-1-4.5l-17.6-35.2L593,341c1.4-2.8,1.4-6.1,0-8.9L575.4,297l17.6-35.2C594.4,259.1,594.4,255.8,593,253 M99,337.9
				l-14.3-9.5c-3.3-2.2-7.7-2.2-11,0l-14.3,9.5v-31.8c3.3,0.5,6.6,0.8,9.9,0.8c10.3,0,20.4-2.3,29.7-6.8V337.9z M169.6,227.7
				l-9.5,14.3c-2.2,3.3-2.2,7.7,0,11l9.5,14.3h-37.8c4.5-9.3,6.8-19.4,6.8-29.7c0-3.3-0.3-6.6-0.8-9.9H169.6z M118.8,237.6
				c0,27.3-22.2,49.5-49.5,49.5S19.8,265,19.8,237.6c0-27.3,22.2-49.5,49.5-49.5S118.8,210.3,118.8,237.6z"/>
		</g>
	</g>
	<g class="st0">
		<g>
			<defs>
				<rect id="SVGID_5_" x="-0.5" y="0.5" width="595" height="593"/>
			</defs>
			<clipPath id="SVGID_6_">
				<use xlink:href="#SVGID_5_"  style="overflow:visible;"/>
			</clipPath>
			<rect x="227.2" y="207.4" class="st2" width="19.8" height="19.8"/>
		</g>
		<g>
			<defs>
				<rect id="SVGID_7_" x="-0.5" y="0.5" width="595" height="593"/>
			</defs>
			<clipPath id="SVGID_8_">
				<use xlink:href="#SVGID_7_"  style="overflow:visible;"/>
			</clipPath>
			<rect x="227.2" y="247" class="st3" width="19.8" height="19.8"/>
		</g>
		<g>
			<defs>
				<rect id="SVGID_9_" x="-0.5" y="0.5" width="595" height="593"/>
			</defs>
			<clipPath id="SVGID_10_">
				<use xlink:href="#SVGID_9_"  style="overflow:visible;"/>
			</clipPath>
			<rect x="227.2" y="365.8" class="st4" width="19.8" height="19.8"/>
		</g>
		<g>
			<defs>
				<rect id="SVGID_11_" x="-0.5" y="0.5" width="595" height="593"/>
			</defs>
			<clipPath id="SVGID_12_">
				<use xlink:href="#SVGID_11_"  style="overflow:visible;"/>
			</clipPath>
			<rect x="227.2" y="286.6" class="st5" width="19.8" height="19.8"/>
		</g>
		<g>
			<defs>
				<rect id="SVGID_13_" x="-0.5" y="0.5" width="595" height="593"/>
			</defs>
			<clipPath id="SVGID_14_">
				<use xlink:href="#SVGID_13_"  style="overflow:visible;"/>
			</clipPath>
			<rect x="227.2" y="326.2" class="st6" width="19.8" height="19.8"/>
		</g>
		<g>
			<defs>
				<rect id="SVGID_15_" x="-0.5" y="0.5" width="595" height="593"/>
			</defs>
			<clipPath id="SVGID_16_">
				<use xlink:href="#SVGID_15_"  style="overflow:visible;"/>
			</clipPath>
			<path class="st7" d="M435.1,385.6c5.5,0,9.9-4.4,9.9-9.9V217.3c0-5.5-4.4-9.9-9.9-9.9h-59.4c-5.5,0-9.9,4.4-9.9,9.9v158.4
				c0,5.5,4.4,9.9,9.9,9.9H435.1 M385.6,227.2h39.6v138.6h-39.6V227.2z"/>
		</g>
		<g>
			<defs>
				<rect id="SVGID_17_" x="-0.5" y="0.5" width="595" height="593"/>
			</defs>
			<clipPath id="SVGID_18_">
				<use xlink:href="#SVGID_17_"  style="overflow:visible;"/>
			</clipPath>
			<polyline class="st8" points="455.4,382.5 514.8,204.3 533.6,210.5 474.3,388.7 455.4,382.5 			"/>
		</g>
		<g>
			<defs>
				<rect id="SVGID_19_" x="-0.5" y="0.5" width="595" height="593"/>
			</defs>
			<clipPath id="SVGID_20_">
				<use xlink:href="#SVGID_19_"  style="overflow:visible;"/>
			</clipPath>
			<rect x="514.3" y="365.8" class="st9" width="19.8" height="19.8"/>
		</g>
		<g>
			<defs>
				<rect id="SVGID_21_" x="-0.5" y="0.5" width="595" height="593"/>
			</defs>
			<clipPath id="SVGID_22_">
				<use xlink:href="#SVGID_21_"  style="overflow:visible;"/>
			</clipPath>
			<rect x="464.8" y="207.4" class="st10" width="19.8" height="19.8"/>
		</g>
	</g>
	<g class="st0">
		<g>
			<defs>
				<rect id="SVGID_23_" y="0" width="594.1" height="594"/>
			</defs>
			<clipPath id="SVGID_24_">
				<use xlink:href="#SVGID_23_"  style="overflow:visible;"/>
			</clipPath>
			<g class="st11">
				<g>
					<defs>
						<rect id="SVGID_25_" y="1" width="595" height="593"/>
					</defs>
					<defs>
						<rect id="SVGID_26_" y="1" width="595" height="593"/>
					</defs>
					<defs>
						<rect id="SVGID_27_" y="1" width="595" height="593"/>
					</defs>
					<defs>
						<rect id="SVGID_28_" y="1" width="595" height="593"/>
					</defs>
					<clipPath id="SVGID_29_">
						<use xlink:href="#SVGID_25_"  style="overflow:visible;"/>
					</clipPath>
					<clipPath id="SVGID_30_" class="st12">
						<use xlink:href="#SVGID_26_"  style="overflow:visible;"/>
					</clipPath>
					<clipPath id="SVGID_31_" class="st13">
						<use xlink:href="#SVGID_27_"  style="overflow:visible;"/>
					</clipPath>
					<clipPath id="SVGID_32_" class="st14">
						<use xlink:href="#SVGID_28_"  style="overflow:visible;"/>
					</clipPath>
					<path class="st15" d="M69.3,277.2c21.9,0,39.6-17.7,39.6-39.6S91.2,198,69.3,198s-39.6,17.7-39.6,39.6
						C29.7,259.5,47.4,277.2,69.3,277.2 M69.3,217.8c10.9,0,19.8,8.9,19.8,19.8c0,10.9-8.9,19.8-19.8,19.8s-19.8-8.9-19.8-19.8
						C49.5,226.7,58.4,217.8,69.3,217.8z"/>
					<path class="st15" d="M257.4,405.9h-49.5v-59.4c0-21.9-17.7-39.6-39.6-39.6s-39.6,17.7-39.6,39.6v108.9c0,2.6,1,5.1,2.9,7
						l56.5,56.5V594h19.8v-79.2c0-2.6-1-5.1-2.9-7l-56.5-56.5V346.5c0-10.9,8.9-19.8,19.8-19.8c10.9,0,19.8,8.9,19.8,19.8v69.3
						c0,5.5,4.4,9.9,9.9,9.9h59.4c16.4,0,29.7,13.3,29.7,29.7V495h19.8v-39.6C306.9,428.1,284.7,406,257.4,405.9"/>
					<rect x="396" y="445.5" class="st15" width="19.8" height="148.4"/>
					<path class="st15" d="M365.9,65.1c-2.1-21.5-21.2-37.3-42.7-35.3c-5.9,0.6-11.6,2.5-16.7,5.6C304.3,13.8,285-2,263.4,0.2
						c-18.6,1.9-33.4,16.6-35.2,35.2C209.6,24.1,185.3,30,174,48.6c-3.8,6.2-5.8,13.4-5.7,20.7v79.2h19.8V69.3
						c0-10.9,8.9-19.8,19.8-19.8s19.8,8.9,19.8,19.8v79.2h19.8V39.6c0-10.9,8.9-19.8,19.8-19.8s19.8,8.9,19.8,19.8v108.9h19.8V69.3
						c0-10.9,8.9-19.8,19.8-19.8s19.8,8.9,19.8,19.8v79.2h19.8V99c0-10.9,8.9-19.8,19.8-19.8s19.8,8.9,19.8,19.8v49.5h19.8V99
						c0.1-21.7-17.4-39.5-39.1-39.6C379.3,59.4,372.1,61.3,365.9,65.1"/>
				</g>
			</g>
			<g class="st11">
				<g>
					<defs>
						<rect id="SVGID_33_" y="1" width="595" height="593"/>
					</defs>
					<clipPath id="SVGID_34_">
						<use xlink:href="#SVGID_33_"  style="overflow:visible;"/>
					</clipPath>
					<g class="st16">
						<text transform="matrix(0.7463 0 0 1 273.4771 383.2914)" class="st17 st18 st19">2</text>
					</g>
				</g>
			</g>
		</g>
	</g>
</g>
</svg>
