<?xml version="1.0" encoding="utf-8"?>
<!-- Generator: Adobe Illustrator 21.1.0, SVG Export Plug-In . SVG Version: 6.00 Build 0)  -->
<svg version="1.1" id="Слой_1" xmlns="http://www.w3.org/2000/svg" xmlns:xlink="http://www.w3.org/1999/xlink" x="0px" y="0px"
	 viewBox="0 0 584.4 584.4" style="enable-background:new 0 0 584.4 584.4;" xml:space="preserve">
<style type="text/css">
	.st0{fill:#619AD3;}
	.st1{fill:#BDCFEC;}
	.st2{fill:#CFDBF1;}
	.st3{fill:#B9CCEB;}
	.st4{fill:#D2DEF2;}
</style>
<g>
	<path class="st0" d="M64.4,453.7c0-1,0-2-0.1-3c-0.2-1.5-0.2-3,0-4.5c0-1,0-2,0.1-3c0.3-0.6,0-1.3,0.2-1.9
		c0.7-8.9,3.4-17.2,7.3-25.2c2.4-4.7,5.3-9.1,8.7-13.2c2.8-3.4,5.8-6.6,9-9.6c0.6-0.2,0.9-0.7,1.2-1.1
		c23.4-23.4,46.9-46.8,70.3-70.2c26.7-26.7,53.4-53.3,80-80c10.6-10.6,23.1-17.5,37.8-20.1c17.9-3.2,34.8-0.3,50.4,9.2
		c13.2,8.1,22.8,19.3,28.8,33.5c2.7,6.5-1.2,13.1-8.1,13.7c-3.6,0.3-7.6-2.2-9.1-5.7c-3-7.1-7.2-13.4-12.8-18.7
		c-8.3-7.7-18-12.3-29.2-13.8c-10.9-1.4-21.2,0.5-31,5.4c-4.8,2.4-9.1,5.6-12.9,9.5c-24.3,24.2-48.6,48.5-72.8,72.8
		c-0.8,0.8-1,1.5-0.6,2.6c5.2,14.7,12.9,27.8,23.3,39.4c10.3,11.5,22.3,20.6,36.2,27.4c11,5.3,22.5,8.8,34.6,10.5
		c6.9,0.9,13.9,1.4,20.8,1.1c15.1-0.7,29.5-3.9,43.3-10.1c13.4-6.1,25.2-14.4,35.6-24.9c20.6-20.7,41.3-41.3,61.9-62
		c31.5-31.4,63.1-62.8,94.5-94.4c16.3-16.5,26.6-36.3,31.1-59.1c1.5-7.4,2.2-15,2.2-22.5c0-15.9-3.1-31.2-9.3-45.9
		c-5.9-13.9-14.2-26.1-24.8-36.7c-16.3-16.2-35.8-26.8-58.3-31.7c-8.8-1.9-17.6-2.8-26.5-2.6c-18.9,0.5-36.7,5-53.4,14
		c-9,4.9-17.3,10.8-24.7,17.9c-1.5,1.4-3,2.8-4.4,4.3c-26.9,26.8-53.7,53.7-80.6,80.6c-3.5,3.5-7.6,4.3-11.8,2.1
		c-5.2-2.7-6.6-9.9-2.7-14.3c0.3-0.3,0.6-0.7,0.9-1C297.8,94.4,325.9,66,354.4,38c17.8-17.5,39.3-28.8,63.7-34.4
		c8.1-1.9,16.3-2.9,24.5-3.3c0.6-0.2,1.3-0.1,1.9-0.1c2.7,0,5.5,0,8.2,0c12.5-0.2,24.5,2.1,36.4,5.7c15.2,4.7,29.1,11.9,41.8,21.5
		c5.8,4.4,11.2,9.1,16.1,14.4c8.3,8.8,15.5,18.5,21.2,29.2c7.6,14.1,12.5,29.2,14.9,45c0.8,5.4,1.1,10.8,1,16.2
		c0.1,2.7-0.2,5.4,0.2,8.1c0,0.3,0,0.6,0,0.9c-0.6,0.9-0.2,2-0.3,2.9c-0.3,0.7,0,1.5-0.2,2.2c0,0.6,0,1.2-0.1,1.8
		c-0.3,0.5,0,1-0.2,1.5c-1.6,14.8-5.4,29.1-11.6,42.6c-5,10.8-11.2,20.8-18.8,30c-3.3,3.9-6.8,7.6-10.4,11.3
		C491,285.2,439.3,337,387.6,388.7c-8.8,8.8-18.7,16.2-29.7,22.2c-7.6,4.2-15.6,7.7-23.8,10.4c-6.9,2.3-14,3.9-21.2,5
		c-1.7,0.3-3.4,0.5-5.2,0.7c-0.5,0.2-1.1-0.1-1.5,0.2c-0.5,0-1,0-1.5,0.1c-0.6,0.3-1.3-0.1-1.8,0.2c-0.7,0-1.4,0-2.1,0.1
		c-1,0.3-2.1-0.1-3.1,0.2c-3.9,0-7.7,0-11.6,0c-0.9-0.3-1.9,0.1-2.8-0.2c-0.7,0-1.4,0-2.1-0.1c-0.6-0.3-1.3,0-1.9-0.2
		c-9.6-0.7-18.9-2.7-28-5.5c-5.6-1.7-11-3.9-16.4-6.3c-8.7-3.9-16.8-8.9-24.5-14.6c-3.5-2.6-6.8-5.5-10.1-8.5
		c-2.4-2.2-4.8-4.4-7-6.8c-7.6-8.1-14.3-17-19.7-26.7c-2.5-4.5-4.8-9.2-6.8-13.9c-0.3-0.8-0.7-1-1.3-0.3c-0.3,0.3-0.6,0.6-0.9,0.9
		c-21.7,21.7-43.3,43.4-65,65c-8.2,8.1-13.5,17.7-15.6,29c-0.3,1.4-0.5,2.8-0.4,4.3c-0.3,0.7,0,1.5-0.2,2.2c0,1.7,0,3.4,0,5.1
		c0.3,0.7-0.1,1.5,0.2,2.2c0.2,5.7,1.7,11,3.9,16.1c2.6,6.1,6.3,11.6,11.1,16.3c7.2,7.1,15.7,11.9,25.6,14.1c2.2,0.5,4.4,1,6.6,0.9
		c0.7,0.3,1.5,0,2.1,0.2c1.9,0,3.8,0,5.8,0c0.6-0.2,1.3,0.1,1.9-0.2c4.6-0.2,8.9-1.3,13.2-2.9c4.9-1.8,9.5-4.2,13.6-7.4
		c1.9-1.4,3.7-3,5.4-4.6c16.3-16.2,32.5-32.4,48.7-48.7c2.9-3,6.2-4.1,10.1-3c3.8,1.1,6,3.8,6.8,7.6c0.2,0.9,0.1,1.8,0,2.7
		c-0.4,2.5-1.7,4.5-3.5,6.3c-16.1,16.1-32.2,32.2-48.3,48.3c-8.1,8.1-17.6,14-28.4,17.6c-5,1.6-10,2.8-15.3,3.2
		c-0.6,0.3-1.3-0.1-1.9,0.2c-1,0-2,0-3,0.1c-1.5,0.2-3,0.2-4.5,0c-1,0-2,0-3-0.1c-0.6-0.3-1.3,0-1.8-0.2
		c-33.7-2.9-61.2-30.6-64.2-64.2C64.4,454.9,64.8,454.3,64.4,453.7z"/>
	<path class="st1" d="M0.3,453.5c-0.1,0-0.2,0-0.3,0c0-3.3,0-6.6,0-9.9c0.1,0,0.2,0,0.3,0c0.4,0.4,0.5,0.9,0.5,1.4
		c0,2.4,0,4.9,0,7.3C0.7,452.6,0.7,453.1,0.3,453.5z"/>
	<path class="st2" d="M131.6,584.4c0-0.1,0-0.2,0-0.3c0.2-0.2,0.4-0.4,0.6-0.4c2.5-0.2,5-0.2,7.5,0c0.3,0,0.5,0.2,0.6,0.4
		c0,0.1,0,0.2,0,0.3C137.4,584.4,134.5,584.4,131.6,584.4z"/>
	<path class="st3" d="M453.1,0c0,0.1,0,0.2,0,0.3c-2.9,0-5.9,0-8.8,0c-0.1-0.1-0.1-0.1-0.1-0.2c0-0.1,0.1-0.1,0.1-0.1
		C447.3,0,450.2,0,453.1,0z"/>
	<path class="st4" d="M584.1,131.9c0.1,0,0.2,0,0.3,0c0,2.8,0,5.6,0,8.4c-0.4-0.2-0.3-0.6-0.3-0.9
		C584.1,136.9,584.1,134.4,584.1,131.9z"/>
	<path class="st0" d="M140.3,584.1c-2.9,0-5.8,0-8.8,0c-20.5-0.7-39.9-5.7-58.2-15.1c-9.5-4.9-18.3-10.9-26.4-17.9
		c-14.6-12.6-25.9-27.6-34.1-45.1c-5.2-11-8.8-22.5-10.8-34.6c-1-6-1.7-12-1.8-18.1c0-3.3,0-6.7,0-10c0.9-23.7,7.5-45.7,19.9-66
		c5.4-8.8,11.7-17,19.1-24.3c52.7-52.7,105.3-105.4,158.1-158c16.6-16.5,36.4-27.6,59-33.8c7-1.9,14.1-3.2,21.4-4
		c5.6-0.6,11.3-0.9,17-0.8c17.8,0.4,34.9,4,51.3,11c13.4,5.8,25.6,13.5,36.5,23.2c11.1,9.8,20.3,21.2,27.7,34
		c2.7,4.7,5.1,9.4,7.1,14.4c0.5,1.3,0.8,1.2,1.7,0.3c15.8-15.8,31.7-31.6,47.5-47.4c6.3-6.3,12.7-12.6,18.9-18.9
		c8-8,13.1-17.6,14.8-28.7c2.4-15.6-1.2-29.7-11.3-41.9c-8.7-10.6-19.9-17-33.4-18.7c-16.2-2.1-30.8,2.2-42.8,13.5
		c-12.3,11.6-24,23.8-36,35.7c-4.9,4.9-9.8,9.8-14.7,14.7c-2.9,2.9-6.3,3.8-10.2,2.5c-3.8-1.4-5.9-4.3-6.3-8.2
		c-0.3-2.5,0.6-4.8,2.3-6.8c0.4-0.5,0.9-0.9,1.4-1.4c15.9-15.9,31.9-31.8,47.8-47.8c9.5-9.6,20.7-16.2,33.8-19.5
		c7.9-2,15.9-2.5,24-1.8c14.1,1.2,26.6,6.2,37.7,15c14,11.2,22.9,25.6,26.1,43.2c3.1,17,0.4,33.1-8.1,48.2
		c-3,5.4-6.8,10.4-11.2,14.8c-46.2,46.2-92.5,92.5-138.7,138.7c-5.9,5.9-11.7,11.7-17.6,17.6c-9.8,9.8-21.4,16.4-34.9,19.6
		c-7.7,1.8-15.4,2.2-23.3,1.5c-15-1.4-28.3-7.1-39.7-16.9c-8.7-7.4-15.2-16.5-19.5-27.1c-1.7-4.3-0.4-8.9,3.2-11.5
		c3.4-2.5,8.1-2.3,11.6,0.5c1.4,1.1,2.2,2.7,2.9,4.3c2.8,6.7,6.8,12.5,12,17.4c8.4,8,18.4,12.9,30,14.2c17.1,1.9,31.8-3.3,44-15.4
		c23.8-23.7,47.5-47.5,71.3-71.1c1.8-1.8,2.1-3.1,1.2-5.5c-5.4-14.2-13-26.9-23.2-38.2c-14.4-15.8-31.7-27-52.1-33.3
		c-7.5-2.3-15.1-3.8-22.9-4.6c-24-2.3-46.6,2.2-67.8,13.7c-9.8,5.3-18.5,11.9-26.4,19.8c-52.7,52.6-105.4,105.2-158,158
		c-10,10.1-17.7,21.8-23.2,35c-3.8,8.5-6.3,17.3-7.8,26.5c-0.4,2.4-0.9,4.8-0.9,7.2c-0.3,0.5,0,1.1-0.2,1.6c0,0.6,0,1.2-0.1,1.7
		c-0.3,0.7,0,1.5-0.2,2.2c0,1.2-0.1,2.4-0.1,3.6c-0.2,2.3-0.2,4.5,0,6.8c0,1.1,0,2.2,0.1,3.3c0.3,0.8-0.1,1.7,0.2,2.5
		c0,0.6,0,1.2,0.1,1.8c0.2,0.5-0.1,1.1,0.2,1.5c0.3,5.6,1.5,11,2.8,16.4c2.1,8.3,5.1,16.3,8.9,23.9c4.4,8.6,9.7,16.5,16,23.8
		c8.7,10,18.8,18.3,30.3,25c11.1,6.4,23,10.7,35.6,13.2c3.2,0.6,6.3,1.3,9.6,1.3c0.5,0.3,1.1,0,1.5,0.2c0.6,0,1.2,0,1.8,0.1
		c0.7,0.3,1.5,0,2.2,0.2c1,0,2,0,3,0.1c2.9,0.2,5.9,0.2,8.8,0c1,0,2,0,3-0.1c0.7-0.3,1.5,0.1,2.2-0.2c5.5-0.2,10.8-1.2,16.1-2.4
		c7.5-1.7,14.8-4.2,21.9-7.3c8.1-3.6,15.7-8.1,22.8-13.5c2.8-2.1,5.6-4.4,8.1-6.9c22.1-21.3,43.5-43.3,65.3-64.9
		c7.4-7.3,14.6-14.8,22-22c5-4.9,13.9-2.4,15.6,4.3c0.1,0.3,0.2,0.7,0.3,1c0.2,0.5-0.1,1.1,0.2,1.6c0,0.1,0,0.1,0,0.2
		c-0.3,0.5,0,1.1-0.2,1.6c-0.5,2.3-1.6,4.1-3.3,5.8c-28,28-56,56.1-84.1,84c-8.8,8.7-18.8,15.9-29.7,21.8
		c-12.9,7-26.6,11.7-41.1,14.3C153.2,583.3,146.8,584,140.3,584.1z"/>
</g>
</svg>
