<?xml version="1.0" encoding="utf-8"?>
<!-- Generator: Adobe Illustrator 21.1.0, SVG Export Plug-In . SVG Version: 6.00 Build 0)  -->
<svg version="1.1" id="Слой_1" xmlns="http://www.w3.org/2000/svg" xmlns:xlink="http://www.w3.org/1999/xlink" x="0px" y="0px"
	 viewBox="0 0 899.5 235.9" style="enable-background:new 0 0 899.5 235.9;" xml:space="preserve">
<style type="text/css">
	.st0{fill:#F5E128;}
	.st1{fill:#5A9EEA;}
	.st2{fill:#24AF40;}
	.st3{fill:#151516;}
</style>
<path class="st0" d="M113.7,0C50.5,2.3,0,54.2,0,117.9c0,42.8,22.8,80.3,56.9,101V83.8c0-1.9,0.1-3.8,0.2-5.7
	C59.3,42.5,82.1,12.6,113.7,0z"/>
<path class="st1" d="M235.1,103.1c-8.9,40.5-44.9,70.8-88,70.8c-30.2,0-56.9-14.8-73.3-37.6v91.1c13.7,5.5,28.6,8.6,44.2,8.6
	c65.2,0,118-52.8,118-118C236,112.9,235.7,107.9,235.1,103.1z"/>
<path class="st2" d="M73.8,83.8v1.5c0,0,0,0,0-0.1c7.9-14,23-23.5,40.2-23.5c25.5,0,46.2,20.7,46.2,46.2c0,22.3-15.8,40.8-36.7,45.2
	c7.4,2.5,15.3,3.9,23.6,3.9c40.5,0,73.3-32.8,73.3-73.3c0-20.1-8.1-38.4-21.3-51.6c-2.8-2.9-5.9-5.5-9.2-7.9
	c-12-8.7-26.8-13.8-42.8-13.8C106.6,10.5,73.8,43.3,73.8,83.8z"/>
<g>
	<path class="st3" d="M333.7,141.7h-8.2V68.9h32.8c7.7,0,13.8,2.1,18.4,6.4c4.5,4.3,6.7,9.9,6.7,17c0,7.2-2.3,12.9-6.8,17.1
		c-4.5,4.2-10.6,6.3-18.3,6.3h-24.5V141.7z M333.7,76.7V108h24c5.7,0,10-1.4,13-4.2c2.9-2.8,4.4-6.6,4.4-11.5
		c0-4.9-1.5-8.7-4.4-11.5c-2.9-2.8-7.3-4.2-13-4.2H333.7z"/>
	<path class="st3" d="M422.1,135.1c7.4,0,12.7-3.1,15.9-9.2h9c-1.9,5-4.9,9-9.1,12.1c-4.1,3.1-9.5,4.6-16,4.6
		c-8.3,0-15-2.8-20.2-8.2c-5.1-5.4-7.6-12.1-7.6-20.1c0-8.1,2.4-14.8,7.3-20.1c5.1-5.5,11.8-8.2,20-8.2c8.2,0,14.9,2.7,20,8.2
		c4.8,5.3,7.3,12,7.3,20.1v3.3h-46.1c0.6,5.1,2.6,9.2,6,12.5C412.2,133.4,416.7,135.1,422.1,135.1z M421.5,93.3
		c-5.1,0-9.3,1.6-12.8,4.7c-3.2,3-5.2,6.9-5.9,11.8h37.4c-0.7-4.8-2.7-8.8-5.9-11.8C430.8,94.9,426.5,93.3,421.5,93.3z"/>
	<path class="st3" d="M488.9,135.1c7.4,0,12.7-3.1,15.9-9.2h9c-1.9,5-4.9,9-9.1,12.1c-4.1,3.1-9.5,4.6-16,4.6
		c-8.3,0-15-2.8-20.2-8.2c-5.1-5.4-7.6-12.1-7.6-20.1c0-8.1,2.4-14.8,7.3-20.1c5.1-5.5,11.8-8.2,20-8.2c8.2,0,14.9,2.7,20,8.2
		c4.8,5.3,7.3,12,7.3,20.1v3.3h-46.1c0.6,5.1,2.6,9.2,6,12.5C479,133.4,483.5,135.1,488.9,135.1z M488.2,93.3
		c-5.1,0-9.3,1.6-12.8,4.7c-3.2,3-5.2,6.9-5.9,11.8h37.4c-0.7-4.8-2.7-8.8-5.9-11.8C497.5,94.9,493.3,93.3,488.2,93.3z"/>
	<path class="st3" d="M560.2,85.8V94h-1c-5.9,0-10.8,2.4-14.5,7.1c-3.5,4.5-5.3,10-5.3,16.3v24.2h-8.2v-55h8.2v13.5
		c1.8-5.7,5.6-9.9,11.4-12.6c2.4-1.2,5.4-1.8,8.8-1.8H560.2z"/>
	<path class="st3" d="M637.7,134.5c5.2,0,9.8-1.3,13.7-4c3.9-2.6,6.8-6.2,8.7-10.7h8.7c-2.4,6.9-6.4,12.3-12,16.3
		c-5.9,4.3-12.9,6.4-21,6.4c-10.6,0-19.2-3.6-25.8-10.9c-6.2-7-9.3-15.8-9.3-26.4c0-10.6,3.1-19.4,9.3-26.4
		c6.6-7.3,15.2-10.9,25.8-10.9c8.1,0,15.1,2.1,21,6.4c5.6,4,9.6,9.4,12,16.3h-8.7c-1.9-4.5-4.8-8-8.7-10.7c-3.9-2.6-8.5-4-13.7-4
		c-5.2,0-9.5,0.8-13,2.3c-3.4,1.5-6.3,3.6-8.7,6.2c-4.8,5.4-7.1,12.3-7.1,20.8c0,8.5,2.4,15.4,7.1,20.8
		C621,131.7,628.2,134.5,637.7,134.5z"/>
	<path class="st3" d="M693.5,66.7v10.8h-8.9V66.7H693.5z M684.9,86.7h8.2v55h-8.2V86.7z"/>
	<path class="st3" d="M742,85.8V94h-1c-5.9,0-10.8,2.4-14.5,7.1c-3.5,4.5-5.3,10-5.3,16.3v24.2h-8.2v-55h8.2v13.5
		c1.8-5.7,5.6-9.9,11.4-12.6c2.4-1.2,5.4-1.8,8.8-1.8H742z"/>
	<path class="st3" d="M780.4,135.1c3.5,0,6.6-1,9.3-3c2.7-2,4.7-4.5,5.9-7.7h8.9c-1.7,5.4-4.8,9.8-9.2,13.1
		c-4.7,3.4-10.3,5.1-16.7,5.1c-8.1,0-14.6-2.8-19.7-8.2c-4.9-5.4-7.4-12.1-7.4-20.1s2.5-14.8,7.4-20.1c5.1-5.5,11.6-8.2,19.7-8.2
		c6.5,0,12,1.7,16.7,5.1c4.5,3.3,7.6,7.7,9.2,13.1h-8.9c-1.2-3.2-3.2-5.7-5.9-7.7c-2.7-2-5.8-3-9.3-3c-3.5,0-6.5,0.5-9,1.6
		c-2.5,1.1-4.5,2.6-6.2,4.5c-3.6,4-5.4,8.9-5.4,14.7c0,5.9,1.8,10.8,5.4,14.7C768.8,133,773.9,135.1,780.4,135.1z"/>
	<path class="st3" d="M828.5,141.7h-8.2v-77h8.2V141.7z"/>
	<path class="st3" d="M872.9,135.1c7.4,0,12.7-3.1,15.9-9.2h9c-1.9,5-4.9,9-9.1,12.1c-4.1,3.1-9.5,4.6-16,4.6
		c-8.3,0-15-2.8-20.2-8.2c-5.1-5.4-7.6-12.1-7.6-20.1c0-8.1,2.4-14.8,7.3-20.1c5.1-5.5,11.8-8.2,20-8.2c8.2,0,14.9,2.7,20,8.2
		c4.8,5.3,7.3,12,7.3,20.1v3.3h-46.1c0.6,5.1,2.6,9.2,6,12.5C863,133.4,867.4,135.1,872.9,135.1z M872.2,93.3
		c-5.1,0-9.3,1.6-12.8,4.7c-3.2,3-5.2,6.9-5.9,11.8h37.4c-0.7-4.8-2.7-8.8-5.9-11.8C881.5,94.9,877.3,93.3,872.2,93.3z"/>
</g>
<g>
	<path class="st3" d="M429.8,197.2h-3.2v-28.6h3.2V197.2z"/>
	<path class="st3" d="M476.6,168.6v28.6h-3.8L455.2,173v24.2h-3.2v-28.6h3.8l17.7,24.1v-24.1H476.6z"/>
	<path class="st3" d="M502,173c-0.5,0.5-0.9,1-1.1,1.6c-0.2,0.6-0.3,1.2-0.3,1.8c0,0.6,0.3,1.2,0.8,1.8c0.6,0.5,1.3,1,2.2,1.4
		c0.9,0.4,2,0.7,3.2,1c1.2,0.3,2.4,0.6,3.6,0.9c1.2,0.3,2.4,0.6,3.6,1s2.2,0.9,3.2,1.5c2,1.3,3.1,3.1,3.1,5.3c0,2.7-1,4.7-3,6.1
		c-2,1.4-4.8,2.1-8.3,2.1c-4,0-7.1-0.8-9.2-2.5c-1.9-1.5-2.9-3.6-3.2-6.4h3.4c0.1,2,1.1,3.5,2.9,4.5c1.6,0.9,3.6,1.3,6.2,1.3
		c5.4,0,8-1.7,8-5.1c0-1.2-0.5-2.1-1.4-2.7c-1-0.7-2.2-1.2-3.6-1.6c-1.5-0.4-3-0.8-4.7-1.2c-1.7-0.4-3.3-0.9-4.7-1.4
		c-1.5-0.6-2.7-1.4-3.6-2.3s-1.4-2.3-1.4-3.9c0-2.3,0.9-4.2,2.7-5.7c1.8-1.5,4.5-2.2,8.1-2.2c3.6,0,6.4,0.8,8.4,2.5
		c1.8,1.5,2.8,3.4,2.9,5.7h-3.3c-0.3-2.4-1.8-3.9-4.6-4.7c-1-0.3-2.2-0.4-3.7-0.4s-2.7,0.2-3.7,0.5C503.4,172.1,502.6,172.5,502,173
		z"/>
	<path class="st3" d="M564.5,168.6v16.3c0,3.8-1.1,6.9-3.4,9.2c-2.3,2.3-5.2,3.5-8.8,3.5c-3.6,0-6.5-1.2-8.8-3.5
		c-2.3-2.3-3.4-5.4-3.4-9.2v-16.3h3.2V185c0,3.1,0.9,5.5,2.8,7.2c1.6,1.5,3.6,2.2,6.1,2.2s4.6-0.7,6.2-2.2c1.8-1.7,2.8-4.1,2.8-7.2
		v-16.4H564.5z"/>
	<path class="st3" d="M589.5,197.2h-3.2v-28.6H600c2.9,0,5.2,0.8,7,2.4c1.8,1.6,2.6,3.8,2.6,6.5c0,3.6-1.5,6-4.5,7.3
		c-0.8,0.4-1.7,0.6-2.5,0.8l7.5,11.5h-3.8l-6.9-11h-9.9V197.2z M589.5,183.1h9.9c3.1,0,5.2-1,6.3-2.9c0.4-0.7,0.6-1.6,0.6-2.8
		c0-1.8-0.6-3.2-1.9-4.3c-1.2-1.1-2.9-1.6-4.9-1.6h-10.1V183.1z"/>
	<path class="st3" d="M655.4,197.2h-3.6l-3.5-8.3h-14.2l-3.5,8.3H627l12.2-28.6h4.1L655.4,197.2z M647,185.9l-5.8-14l-5.8,14H647z"
		/>
	<path class="st3" d="M698.8,168.6v28.6h-3.8L677.4,173v24.2h-3.2v-28.6h3.8l17.7,24.1v-24.1H698.8z"/>
	<path class="st3" d="M733.7,194.4c2,0,3.8-0.5,5.4-1.6c1.5-1,2.7-2.4,3.4-4.2h3.4c-1,2.7-2.5,4.8-4.7,6.4c-2.3,1.7-5.1,2.5-8.3,2.5
		c-4.2,0-7.6-1.4-10.2-4.3c-2.5-2.7-3.7-6.2-3.7-10.4c0-4.2,1.2-7.6,3.7-10.4c2.6-2.9,6-4.3,10.2-4.3c3.2,0,5.9,0.8,8.3,2.5
		c2.2,1.6,3.8,3.7,4.7,6.4h-3.4c-0.8-1.8-1.9-3.2-3.4-4.2c-1.5-1-3.3-1.6-5.4-1.6s-3.7,0.3-5.1,0.9c-1.4,0.6-2.5,1.4-3.4,2.4
		c-1.9,2.1-2.8,4.8-2.8,8.2s0.9,6.1,2.8,8.2C727.2,193.3,730,194.4,733.7,194.4z"/>
	<path class="st3" d="M769.2,171.7v9.6h15.9v3.2h-15.9v9.6H787v3.1h-21.1v-28.6H787v3.1H769.2z"/>
</g>
</svg>
