<?xml version="1.0" encoding="utf-8"?>
<!-- Generator: Adobe Illustrator 21.1.0, SVG Export Plug-In . SVG Version: 6.00 Build 0)  -->
<svg version="1.1" id="Слой_1" xmlns="http://www.w3.org/2000/svg" xmlns:xlink="http://www.w3.org/1999/xlink" x="0px" y="0px"
	 viewBox="0 0 595.3 502.1" style="enable-background:new 0 0 595.3 502.1;" xml:space="preserve">
<style type="text/css">
	.st0{clip-path:url(#SVGID_2_);}
	.st1{clip-path:url(#SVGID_4_);fill:#5A9EEA;}
	.st2{clip-path:url(#SVGID_2_);fill:#5A9EEA;}
	.st3{clip-path:url(#SVGID_2_);fill:none;}
</style>
<g>
	<g>
		<defs>
			<rect id="SVGID_1_" x="0.1" y="0" width="595.2" height="502"/>
		</defs>
		<clipPath id="SVGID_2_">
			<use xlink:href="#SVGID_1_"  style="overflow:visible;"/>
		</clipPath>
		<g class="st0">
			<g>
				<defs>
					<rect id="SVGID_3_" y="0.1" width="595" height="502"/>
				</defs>
				<clipPath id="SVGID_4_">
					<use xlink:href="#SVGID_3_"  style="overflow:visible;"/>
				</clipPath>
				<path class="st1" d="M558.6,0H36.7C16.5,0,0,16.5,0,36.7v354.2c0,20.2,16.5,36.7,36.7,36.7h176.5l-7.1,57.1h-29.6
					c-4.8,0-8.7,3.9-8.7,8.7c0,4.8,3.9,8.7,8.7,8.7h242.3c4.8,0,8.7-3.9,8.7-8.7c0-4.8-3.9-8.7-8.7-8.7h-29.6l-7.1-57.1h176.5
					c20.2,0,36.7-16.5,36.7-36.7V36.7C595.3,16.5,578.8,0,558.6,0 M371.6,484.6h-148l7.1-57.1h32.1l3.1,12.6
					c3.6,14.5,16.6,24.7,31.6,24.7s28-10.2,31.6-24.7l3.1-12.6h32.1L371.6,484.6z M280.8,427.5h33.6l-2.1,8.4
					c-1.7,6.8-7.7,11.5-14.7,11.5s-13-4.7-14.7-11.5L280.8,427.5z M577.8,390.8c0,10.6-8.6,19.2-19.2,19.2H36.7
					c-10.6,0-19.2-8.6-19.2-19.2V36.7c0-10.6,8.6-19.2,19.2-19.2h521.9c10.6,0,19.2,8.6,19.2,19.2L577.8,390.8L577.8,390.8z"/>
			</g>
		</g>
		<path class="st2" d="M64.6,372.8h-9.9V54.7h438.6c4.8,0,8.7-3.9,8.7-8.7s-3.9-8.7-8.7-8.7H46c-4.8,0-8.7,3.9-8.7,8.7v335.5
			c0,4.8,3.9,8.7,8.7,8.7h18.6c4.8,0,8.7-3.9,8.7-8.7C73.4,376.7,69.5,372.8,64.6,372.8"/>
		<path class="st2" d="M549.3,37.3h-18.6c-4.8,0-8.7,3.9-8.7,8.7s3.9,8.7,8.7,8.7h9.9v318.1H101.9c-4.8,0-8.7,3.9-8.7,8.7
			c0,4.8,3.9,8.7,8.7,8.7h447.4c4.8,0,8.7-3.9,8.7-8.7V46C558,41.2,554.1,37.3,549.3,37.3"/>
		<rect y="0.1" class="st3" width="595" height="502"/>
		<path class="st2" d="M239.1,257.2c2.2,0.6,4.5,0.9,6.8,0.9c1.1,0,2.2-0.1,3.3-0.2l122.5-14.4c15.8-1.9,28.6-13.6,31.7-29.2
			l14.7-73.3c0.5-2.5-0.1-5.1-1.7-7.1s-3.9-3.2-6.5-3.3l-205-9.3c-0.2,0-0.3,0-0.5,0c-1.2-4-3.8-7.4-7.3-9.8L172,94.7
			c-4-2.7-9.4-1.6-12.1,2.4c-2.7,4-1.6,9.4,2.4,12.1l25.1,16.7c0.1,0.1,0.2,0.2,0.2,0.3l32,111.9c1,3.5,2.6,6.6,4.7,9.3l-11.7,23.4
			c-2.8,5.6-2.5,12.2,0.8,17.6c1.2,1.9,2.7,3.6,4.5,4.9c-2.3,4-3.6,8.6-3.6,13.6c0,15.1,12.3,27.4,27.4,27.4
			c15.1,0,27.4-12.3,27.4-27.4c0-3.5-0.7-6.8-1.9-9.9h79.5c-1.2,3.1-1.9,6.4-1.9,9.9c0,15.1,12.3,27.4,27.4,27.4
			s27.4-12.3,27.4-27.4c0-4.4-1-8.5-2.9-12.2c1.8-1.6,2.9-3.9,2.9-6.5c0-4.8-3.9-8.7-8.7-8.7h-162c-0.1,0-0.3,0-0.5-0.3
			s-0.1-0.5,0-0.6L239.1,257.2 M247.1,240.5c-4.9,0.6-9.4-2.4-10.7-7.1l-11.1-38.9h27.9l7.3,44.4L247.1,240.5z M315.7,232.5v-37.9
			h29.9l-3.1,34.8L315.7,232.5z M315.7,177.1v-33.4l34.3,1.6l-2.9,31.9h-31.4V177.1z M298.2,177.1H268l-5.9-35.9l36.2,1.6v34.3
			H298.2z M298.2,194.5v40l-20.4,2.4l-7-42.4H298.2L298.2,194.5z M369.7,226.1l-9.6,1.1l3-32.7h26.5l-3.3,16.3
			C384.6,219,378,225.1,369.7,226.1z M393,177.1h-28.4l2.8-31.1l31.5,1.4L393,177.1z M244.3,140.4l6,36.7h-30l-10.9-38.2
			L244.3,140.4z M251.6,307c0,5.5-4.4,9.9-9.9,9.9s-9.9-4.4-9.9-9.9s4.4-9.9,9.9-9.9C247.2,297,251.6,301.5,251.6,307z M372.2,316.9
			c-5.5,0-9.9-4.4-9.9-9.9s4.4-9.9,9.9-9.9s9.9,4.5,9.9,9.9S377.7,316.9,372.2,316.9z"/>
	</g>
</g>
</svg>
