<?xml version="1.0" encoding="utf-8"?>
<!-- Generator: Adobe Illustrator 21.1.0, SVG Export Plug-In . SVG Version: 6.00 Build 0)  -->
<svg version="1.1" id="Слой_1" xmlns="http://www.w3.org/2000/svg" xmlns:xlink="http://www.w3.org/1999/xlink" x="0px" y="0px"
	 viewBox="0 0 29 51" style="enable-background:new 0 0 29 51;" xml:space="preserve">
<style type="text/css">
	.st0{fill:#5A9EEA;}
</style>
<g>
	<path class="st0" d="M14.5,0L14.5,0C6.5,0,0,6.5,0,14.5v22C0,44.5,6.5,51,14.5,51h0c8,0,14.5-6.5,14.5-14.5v-22
		C29,6.5,22.5,0,14.5,0z M27.5,36.5c0,7.1-5.8,13-13,13s-13-5.9-13-13v-22c0-7.2,5.8-13,13-13s13,5.8,13,13V36.5z"/>
	<path class="st0" d="M14.5,15.4L14.5,15.4c-0.8,0-1.5-0.7-1.5-1.5v-3c0-0.8,0.7-1.5,1.5-1.5h0c0.8,0,1.5,0.7,1.5,1.5v3
		C16,14.7,15.3,15.4,14.5,15.4z"/>
</g>
</svg>
