<?xml version="1.0" encoding="utf-8"?>
<!-- Generator: Adobe Illustrator 21.1.0, SVG Export Plug-In . SVG Version: 6.00 Build 0)  -->
<svg version="1.1" id="Слой_1" xmlns="http://www.w3.org/2000/svg" xmlns:xlink="http://www.w3.org/1999/xlink" x="0px" y="0px"
	 viewBox="0 0 482.5 590.9" style="enable-background:new 0 0 482.5 590.9;" xml:space="preserve">
<style type="text/css">
	.st0{fill:#F8AD41;}
	.st1{fill:#F6A01C;}
</style>
<path class="st0" d="M284.3,0c-0.1,0.4-0.1,1.1-0.7,0.7c-1-0.7-1.9-0.4-2.9-0.4c-84.5,0-169.1,0-253.6,0c-0.8,0-1.7,0.3-2.5-0.4
	C111.1,0,197.7,0,284.3,0z"/>
<path class="st1" d="M482.5,373.2c0,6.6,0,13.1-0.1,19.7c-13.1,0-26.3,0-39.4,0c-1.3,0-1.8,0.2-1.8,1.7c0.1,8.6,0.1,17.2,0,25.9
	c0,1.3,0.4,1.6,1.7,1.6c11.7,0,23.3,0,35-0.1c1.4,0,1.9,0.3,1.9,1.8c-0.1,5.3-0.1,10.7,0,16c0,1.6-0.5,1.9-2,1.9
	c-11.5-0.1-23.1,0-34.6-0.1c-1.6,0-1.9,0.4-1.9,1.9c0.1,13.6,0,27.3,0.1,40.9c0,1.6-0.4,1.9-2,1.9c-6.6-0.1-13.1-0.1-19.7,0
	c-1.7,0-2.1-0.4-2.1-2.1c0.1-35.8,0-71.5,0-107.3c0-3.7,0-3.7,3.8-3.7C441.7,373.2,462.1,373.2,482.5,373.2z"/>
<path class="st1" d="M421.4,327.1c7.1-0.1,14.1-0.1,21.2,0c1.4,0,1.7-0.4,1.7-1.8c0-56.4,0-112.8,0-169.3c0-1.4-0.4-2-1.7-1.7
	c-2.6,0.5-4.4-0.7-6.3-2.6c-10.8-11-21.7-21.8-32.5-32.7C364.6,80,325.5,40.8,286.4,1.7c-0.5-0.5-1.2-0.9-1.4-1.7
	c-0.2,0-0.5,0-0.7,0c-1,0.5-2.1,0.2-3.1,0.2c-84.7,0-169.5,0-254.2,0c-0.8,0-1.6,0.2-2.4-0.2C17,0,9.3,0.1,1.7,0C0.3,0,0,0.3,0,1.7
	C0,197.5,0,393.3,0,589c0,1.5,0.3,1.8,1.8,1.8c147.5,0,295,0,442.4,0c0-21.6,0-43.2,0-64.7c0-1.3-0.4-1.6-1.7-1.6
	c-7.1,0.1-14.1,0.1-21.2,0c-1.5,0-1.8,0.5-1.8,1.9c0,13,0,26,0.1,39.1c0,2-0.6,2.3-2.4,2.3c-130.1,0-260.2,0-390.2,0
	c-2.4,0-2.4,0-2.4-2.4c0-179.4,0-358.7,0-538.1c0-2.4,0-2.4,2.4-2.4c76.6,0,153.1,0,229.7,0c2.4,0,2.4,0,2.4,2.4
	c-0.1,43,0.2,85.9-0.1,128.9c-0.1,6.8,0.1,13.5,0.1,20.3c0,2.7,0,2.7,2.6,2.7c51.8,0,103.7,0,155.5,0c1.8,0,2.4,0.3,2.4,2.3
	c-0.1,30.8-0.1,61.5-0.1,92.3c0,17.2,0,34.5,0,51.7C419.6,326.6,419.8,327.1,421.4,327.1z M398,154.3c-37.3,0-74.6,0-112,0
	c-1.8,0-2.2-0.5-2.2-2.2c0.1-37.4,0-74.8,0-112.1c0-0.6,0-1.1,0-1.3c38.5,38.4,77.2,76.9,116,115.6
	C399.1,154.3,398.6,154.3,398,154.3z"/>
<path class="st1" d="M391.7,409.6c-3.9-14.3-12.8-24.6-26.2-30.8c-8.5-3.9-17.6-5.5-26.9-5.6c-12.2-0.1-24.3,0-36.5-0.1
	c-1.7,0-2.2,0.4-2.2,2.1c0.1,18.1,0,36.2,0,54.3c0,18.3,0,36.6,0,54.9c0,1.4,0.2,1.9,1.8,1.9c11-0.1,21.9,0,32.9-0.1
	c7.3-0.1,14.6-0.9,21.7-3c17.5-5,29.7-15.7,34.9-33.3C395.2,436.6,395.3,423,391.7,409.6z M366.8,445.9c-3.7,11.8-12.1,18-24,19.9
	c-5.8,0.9-11.6,0.6-17.4,0.7c-1.6,0-1.3-1-1.3-1.8c0-11.7,0-23.3,0-35c0-11.7,0-23.4,0-35.1c0-1.3,0.3-1.8,1.7-1.8
	c5.6,0.2,11.3-0.4,16.9,0.4c14.1,1.9,22,8.9,25.1,22.8C370,426,369.9,436.1,366.8,445.9z"/>
<path class="st1" d="M278.3,402.8c-1.3-12-7.2-20.8-18.4-25.6c-6.8-2.9-13.9-4-21.2-4c-12.1-0.1-24.3,0-36.4-0.1c-1.6,0-2.1,0.4-2,2
	c0.1,18.2,0,36.3,0,54.5c0,18.2,0,36.4,0,54.7c0,1.7,0.4,2,2.1,2c6.6-0.1,13.3-0.1,19.9,0c1.7,0,2.3-0.3,2.3-2.2
	c-0.1-12.1,0-24.3-0.1-36.4c0-1.3,0.3-1.7,1.6-1.7c1.9,0.1,3.7,0,5.6,0c7.1,0.1,14.1-0.3,21-2.2c9.8-2.8,17.8-8,22.4-17.5
	C278.6,418.9,279.2,410.9,278.3,402.8z M254.3,410.7c-0.7,9.2-6.4,14.2-16.1,15.3c-4.1,0.4-8.3,0.2-12.4,0.4c-1.3,0-1.4-0.5-1.4-1.5
	c0-5.1,0-10.2,0-15.2c0-5,0-10,0-15c0-1.3,0.2-1.9,1.7-1.8c4.9,0.2,9.8-0.3,14.7,0.4C251.1,394.6,255,401.1,254.3,410.7z"/>
</svg>
