<?xml version="1.0" encoding="utf-8"?>
<!-- Generator: Adobe Illustrator 21.1.0, SVG Export Plug-In . SVG Version: 6.00 Build 0)  -->
<svg version="1.1" id="Слой_1" xmlns="http://www.w3.org/2000/svg" xmlns:xlink="http://www.w3.org/1999/xlink" x="0px" y="0px"
	 viewBox="0 0 12.6 12.6" style="enable-background:new 0 0 12.6 12.6;" xml:space="preserve">
<style type="text/css">
	.st0{fill:#5A9EEA;}
</style>
<g>
	<path class="st0" d="M12.6,9.9c0,0.2,0,0.4-0.1,0.6c-0.1,0.3-0.1,0.5-0.2,0.6c-0.1,0.3-0.5,0.6-1.1,0.9c-0.6,0.3-1.1,0.5-1.7,0.5
		c-0.2,0-0.3,0-0.5,0c-0.2,0-0.3-0.1-0.5-0.1c-0.2-0.1-0.3-0.1-0.4-0.1s-0.3-0.1-0.5-0.2C7.4,12,7.3,12,7.2,12
		c-0.6-0.2-1.1-0.5-1.6-0.7c-0.8-0.5-1.5-1.1-2.4-1.9S1.8,7.7,1.4,6.9c-0.3-0.5-0.5-1-0.7-1.6c0-0.1-0.1-0.2-0.2-0.4
		C0.4,4.7,0.3,4.5,0.3,4.4S0.2,4.2,0.1,4C0.1,3.8,0.1,3.6,0,3.5C0,3.3,0,3.2,0,3c0-0.5,0.2-1.1,0.5-1.7c0.3-0.6,0.6-1,0.9-1.1
		C1.6,0.2,1.8,0.1,2,0.1C2.3,0,2.5,0,2.6,0c0.1,0,0.1,0,0.2,0c0.1,0,0.3,0.3,0.5,0.7C3.4,0.8,3.5,1,3.6,1.2c0.1,0.2,0.2,0.4,0.3,0.6
		C4,1.9,4.1,2.1,4.2,2.2c0,0,0.1,0.1,0.2,0.2s0.2,0.2,0.2,0.3c0,0.1,0.1,0.2,0.1,0.3c0,0.1-0.1,0.3-0.3,0.4C4.1,3.7,4,3.8,3.8,4
		C3.6,4.1,3.4,4.3,3.2,4.4C3,4.6,3,4.7,3,4.8C3,4.9,3,5,3,5c0,0.1,0.1,0.1,0.1,0.2c0,0,0.1,0.1,0.1,0.2s0.1,0.2,0.1,0.2
		c0.5,0.8,1,1.5,1.6,2.1C5.4,8.3,6.1,8.8,7,9.3c0,0,0.1,0,0.2,0.1s0.2,0.1,0.2,0.1c0,0,0.1,0,0.2,0.1c0.1,0,0.1,0,0.2,0
		c0.1,0,0.2-0.1,0.4-0.3C8.3,9.2,8.5,9,8.6,8.8c0.1-0.2,0.3-0.4,0.5-0.6C9.3,8.1,9.4,8,9.5,8c0.1,0,0.2,0,0.3,0.1
		c0.1,0,0.2,0.1,0.3,0.2s0.2,0.1,0.2,0.2c0.1,0.1,0.3,0.2,0.5,0.3C11,8.8,11.2,8.9,11.4,9c0.2,0.1,0.4,0.2,0.5,0.3
		c0.4,0.2,0.6,0.4,0.7,0.5C12.6,9.8,12.6,9.8,12.6,9.9z"/>
</g>
</svg>
