<?xml version="1.0" encoding="utf-8"?>
<!-- Generator: Adobe Illustrator 21.1.0, SVG Export Plug-In . SVG Version: 6.00 Build 0)  -->
<svg version="1.1" id="Слой_1" xmlns="http://www.w3.org/2000/svg" xmlns:xlink="http://www.w3.org/1999/xlink" x="0px" y="0px"
	 viewBox="0 0 595 584.1" style="enable-background:new 0 0 595 584.1;" xml:space="preserve">
<style type="text/css">
	.st0{fill:#5A9EEA;}
</style>
<g>
	<path class="st0" d="M298.5,112.5c31,0,56.3-25.2,56.3-56.3S329.5,0,298.5,0s-56.3,25.2-56.3,56.3S267.4,112.5,298.5,112.5z
		 M298.5,25c17.2,0,31.3,14,31.3,31.3s-14,31.3-31.3,31.3s-31.3-14-31.3-31.3S281.2,25,298.5,25z"/>
	<path class="st0" d="M381.7,185.5c-20.1-36.6-49.7-55.9-85.6-55.9c-36.2,0-65.1,19.5-83.5,56.4c-13.1,26.2-16.3,52.2-16.4,53.3
		l27.8,3.3c0-0.2,2.8-22.8,13.9-44.7c13.6-26.8,33.1-40.3,58.2-40.3c25.3,0,45.7,13.7,60.7,40.8c12.2,22,16.1,44.6,16.1,44.8
		l27.6-4.5C400.4,237.6,396.1,211.7,381.7,185.5z"/>
</g>
<g>
	<path class="st0" d="M102.2,453.5c31,0,56.3-25.2,56.3-56.3s-25.2-56.3-56.3-56.3S46,366.2,46,397.2S71.2,453.5,102.2,453.5z
		 M102.2,365.9c17.2,0,31.3,14,31.3,31.3s-14,31.3-31.3,31.3S71,414.4,71,397.2S85,365.9,102.2,365.9z"/>
	<path class="st0" d="M185.5,526.4c-20.1-36.6-49.7-55.9-85.6-55.9c-36.2,0-65.1,19.5-83.5,56.4C3.3,553.1,0.1,579.1,0,580.2
		l27.8,3.3c0-0.2,2.8-22.8,13.9-44.7c13.6-26.8,33.1-40.3,58.2-40.3c25.3,0,45.7,13.7,60.7,40.8c12.2,22,16.1,44.6,16.1,44.8
		l27.6-4.5C204.2,578.5,199.8,552.6,185.5,526.4z"/>
</g>
<g>
	<path class="st0" d="M492.8,453.5c31,0,56.3-25.2,56.3-56.3s-25.2-56.3-56.3-56.3s-56.3,25.2-56.3,56.3S461.7,453.5,492.8,453.5z
		 M492.8,365.9c17.2,0,31.3,14,31.3,31.3s-14,31.3-31.3,31.3s-31.3-14-31.3-31.3S475.5,365.9,492.8,365.9z"/>
	<path class="st0" d="M576,526.4c-20.1-36.6-49.7-55.9-85.6-55.9c-36.2,0-65.1,19.5-83.5,56.4c-13.1,26.2-16.3,52.2-16.4,53.3
		l27.8,3.3c0-0.2,2.8-22.8,13.9-44.7c13.6-26.8,33.1-40.3,58.2-40.3c25.3,0,45.7,13.7,60.7,40.8c12.2,22,16.1,44.6,16.1,44.8
		l27.6-4.5C594.7,578.5,590.4,552.6,576,526.4z"/>
</g>
<polygon class="st0" points="390.5,405.4 310.3,351.8 310.3,255.4 285,255.4 285,349.7 201.7,405.4 215.7,426.5 296.1,372.7 
	376.4,426.5 "/>
</svg>
