<?xml version="1.0" encoding="utf-8"?>
<!-- Generator: Adobe Illustrator 21.1.0, SVG Export Plug-In . SVG Version: 6.00 Build 0)  -->
<svg version="1.1" id="Слой_1" xmlns="http://www.w3.org/2000/svg" xmlns:xlink="http://www.w3.org/1999/xlink" x="0px" y="0px"
	 viewBox="0 0 594.7 590.9" style="enable-background:new 0 0 594.7 590.9;" xml:space="preserve">
<path d="M0,363.6c15.8,0,31.6,0,48,0c0-6.7,0-13.1,0-19.7c42.1,0,83.7,0,125.7,0c0,5.3,0,10.5,0,17c6.3-3.5,11.7-6.6,17.1-9.6
	c12.1-6.9,24.4-13.6,33.6-24.6c10.5-12.5,17.7-26.5,18.4-42.9c1-20.1,0.8-40.2,1.1-60.3c0-1.8,0-3.6,0-5.5
	c21.4-2.1,40.4,3.1,57.3,15.6c17.3,12.7,27.2,30.2,31.5,51.1c0.9,4.2,1.1,8.5,1.1,12.8c0.1,18.8,0,37.6,0,57.2c2,0,3.7,0,5.5,0
	c31.5,0,63-0.1,94.5,0.1c7.5,0.1,14.9,1.2,21.8,4.8c20.4,10.4,26.5,38.4,12.6,56.5c-6.3,8.2-14.6,12.3-24.3,15
	c0,6.6-0.3,13.3,0.1,19.9c0.9,15.8-8.7,31.3-25.6,36.1c-0.5,7.6-0.3,15.3-1.6,22.7c-2.4,13-10.3,22.2-22.8,26.7
	c-4,1.5-5.1,3.2-5.2,7.3c-0.2,8.7,1.7,17.5-1.8,26c-4.6,11.1-12.6,18.3-24.7,19.7c-8.4,0.9-16.8,1-25.3,1.1
	c-25.5,0.1-51-0.5-76.5,0.3c-12,0.4-22.5-2.9-33-7.9c-17.5-8.3-35.4-15.9-53.6-24.1c0,6.4,0,12.3,0,18.5c-42.1,0-83.8,0-125.9,0
	c0-6.4,0-12.7,0-19.7c-16.3,0-32.2,0-48.1,0c0-6.3,0-12.7,0-19c15.9,0,31.8,0,47.7,0c0-52.7,0-104.7,0-157c-16.1,0-31.9,0-47.7,0
	C0,375.6,0,369.6,0,363.6z M315,373.6c0-2.5,0-4.3,0-6.1c0-23.5,0-47,0-70.5c0-2.9-0.6-5.9-0.9-8.8c-3.4-25.9-26.8-48-52.1-51.2
	c0,11,0.3,22-0.1,33c-0.3,8.9-0.3,17.9-2.1,26.5c-5.5,25.6-19.3,46.1-41.5,60.2c-13.3,8.5-27.2,16.2-41,24c-2.8,1.6-3.4,3.4-3.4,6.3
	c0.1,49,0.1,98-0.1,147c0,3.5,1.3,4.9,4.1,6.1c18.9,8.4,37.8,17.1,56.8,25.3c5.8,2.5,11.9,5.8,17.9,5.9c34.3,0.6,68.7,0.3,103,0.3
	c7.4,0,12.7-3.2,14.2-10.3c1.4-7,1.1-14.3,1.6-21.8c-13.7,0-26.3,0-39.1,0c0-6.4,0-12.5,0-18.8c16.5,0,32.6,0,48.8,0
	c7.8,0,17.1-8.1,17.8-15.7c0.5-5.2,0.1-10.6,0.1-16.4c-22.5,0-44.6,0-66.6,0c0-6.6,0-12.7,0-18.9c2.2,0,4.1,0,5.9,0
	c23.5,0,47,0,70.5,0c7.6,0,15.5-6,16-13.3c0.6-8.4,0.2-16.9,0.2-25.9c-31.2,0-61.9,0-92.7,0c0-6.2,0-11.7,0-17.8c2,0,3.8,0,5.6,0
	c32.7,0,65.3,0.1,98-0.1c3.5,0,7.3-0.6,10.4-2.2c8.3-4.1,12.6-13.6,10.5-21.4c-2.5-9.5-10.3-15.4-20.2-15.4c-38.5,0-77,0-115.5,0
	C319.3,373.6,317.5,373.6,315,373.6z M155.7,558.4c0-65.8,0-131.2,0-196.4c-29.7,0-59.1,0-88.4,0c0,65.7,0,130.9,0,196.4
	C96.8,558.4,126,558.4,155.7,558.4z"/>
<path d="M594.7,0c0,95.6,0,190.9,0,286.5c-24.2,0-48.1,0-72.5,0c0,29.1,0,57.9,0,87.7c-4.4-2.5-8-4.4-11.5-6.6
	c-19.3-12.2-38.6-24.4-57.9-36.6c-22.2-14.1-44.3-28.2-66.6-42.1c-2.2-1.4-5.2-2-7.9-2.1c-8.8-0.3-17.6-0.1-26.9-0.1
	c0-5.9,0-11.6,0-17.9c12.4,0,24.8-0.3,37.2,0.2c3,0.1,6,3,8.9,4.8c29.2,18.3,58.3,36.6,87.5,54.9c5.8,3.6,11.4,7.3,17.9,11.5
	c0-24.1,0-47.5,0-71.3c24.8,0,49,0,73.7,0c0-84.1,0-167.8,0-251.9c-141.5,0-283.2,0-425.3,0c0,83.6,0,167.3,0,251.6
	c24.1,0,48.1,0,72.4,0c0,6.1,0,11.7,0,17.7c-30.4,0-60.8,0-91.5,0c0-95.4,0-190.6,0-286.3C286.3,0,440.3,0,594.7,0z"/>
<path d="M452.6,198.9c1.5-8.2,2.7-15.3,4-22.3c1.2-6.7,2.3-13.5,3.5-20.3c0.9-5.1-3.2-6.9-6.1-9.8c-8.6-8.7-16.9-17.6-25.3-26.4
	c9.7-1.4,19.8-2.9,29.9-4.4c3.2-0.5,6.5-0.8,9.8-1.2c3.7-0.5,5.8-2.6,7.4-6c5.8-12.1,11.9-23.9,18.3-36.8
	c5.4,10.8,11.3,20.5,15.2,31c3.6,9.6,10,12.3,19.1,13.1c10.5,0.9,21,2.8,32.3,4.4c-1.4,1.6-2.4,2.8-3.5,3.9
	c-8.9,8.7-17.8,17.3-26.9,25.9c-2.8,2.6-2.3,5.5-1.7,8.6c2.2,12.5,4.4,25,6.5,37.6c0.1,0.6-0.1,1.3-0.2,2.5
	c-12.3-6.4-24.4-12.5-36.2-19.1c-3.6-2-5.9-1.8-9.3,0.2C477.5,186.2,465.5,192.2,452.6,198.9z M509.2,164.5c0.4-0.4,0.7-0.8,1.1-1.2
	c-0.6-3.7-1.2-7.3-1.9-10.9c-0.9-4.6-0.9-8.3,4.2-11c3.1-1.6,5.3-5,8.3-7.9c-6.1-1-11.1-1.6-16-2.8c-1.7-0.4-3.7-1.9-4.6-3.5
	c-2.2-4-3.9-8.3-6.1-13.1c-2.4,5-4.3,9.3-6.6,13.4c-0.8,1.4-2.6,2.8-4.2,3.2c-5,1.2-10.1,1.8-16.4,2.9c3,2.5,5.1,4.7,7.6,6.4
	c5.6,4.2,6.4,6.2,4.8,13c-0.8,3.4-1,7-1.5,10.5c0.2,0.4,0.4,0.9,0.6,1.3C488.7,155.5,499,155.4,509.2,164.5z"/>
<path d="M191.6,198.8c1.7-10,3.3-19,4.8-28c0.8-4.8,1.8-9.6,2.5-14.5c0.4-2.9-0.8-4.8-3.2-7C186,140,176.7,130,167,120
	c10.5-1.5,20.8-3,31.1-4.4c3.1-0.4,6.2-0.8,9.3-1.2c3.7-0.5,5.8-2.7,7.4-6c5.8-12,11.9-23.9,18.3-36.7c6.4,12.8,12.6,24.7,18.2,36.8
	c1.8,3.8,4.3,5.5,7.9,6c13.1,1.9,26.3,3.6,39.4,5.4c0.1,0.3,0.3,0.8,0.2,0.9c-8.5,8.4-17,16.7-25.5,25.1c-3.7,3.7-7.6,6.3-5.8,13.4
	c3.2,11.9,4.4,24.4,6.5,36.6c0.1,0.6-0.1,1.3-0.1,2.6c-10.7-5.5-21.4-10.5-31.4-16.4c-6.7-3.9-11.9-4.6-18.9,0
	C213.8,188.4,203,193,191.6,198.8z M232.6,113.9c-2.2,5.1-3.9,9.4-6,13.4c-0.8,1.4-2.6,2.9-4.2,3.3c-5,1.2-10.1,1.8-15.2,2.7
	c-0.5,0.6-1,1.1-1.6,1.7c4.4,3.7,10.8,6.7,12.7,11.4c1.9,4.8-0.7,11.3-1.4,17.8c3.1-1.5,5.8-2.4,8-4c5.3-3.8,10.4-3.6,15.7-0.1
	c2.4,1.6,5.1,2.6,8.7,4.3c-0.7-4.2-1.1-7.4-1.9-10.5c-1.4-5.1-1.4-9.4,3.6-12.7c3-2,5.5-4.7,9.1-7.9c-5.1-0.6-8.8-1.1-12.5-1.5
	c-4.2-0.4-7.7-1.6-9.4-6.2C237,121.8,234.9,118.4,232.6,113.9z"/>
<path d="M296.9,82.8c15.1-2.1,29.4-4.1,43.7-6.3c1.2-0.2,2.7-1.6,3.3-2.8c5.8-11.6,11.4-23.2,17.1-34.8c0.7-1.4,1.5-2.8,2.6-4.9
	c2.7,5.6,4.9,10.4,7.3,15.2c3.1,6.3,6.5,12.5,9.2,19c2.3,5.4,5.3,8.8,11.7,9.5c12.5,1.2,25,3.2,38.1,5c-1.3,1.5-2.1,2.6-3.1,3.6
	c-9.6,9.5-19.4,18.7-28.6,28.6c-1.6,1.7-0.4,6.3,0.2,9.5c2,12,4.1,24,6.4,37c-4.7-2.3-8.6-4-12.3-5.9c-8.8-4.7-17.5-9.6-26.4-14.1
	c-1.5-0.7-4-0.6-5.5,0.2c-11.2,5.7-22.3,11.6-33.5,17.5c-1.3,0.7-2.6,1.2-4.9,2.3c1.8-10.8,3.5-20.6,5.2-30.5
	c0.8-4.3,1.8-8.6,2.3-13c0.1-1.3-1.1-3-2.2-4.1c-8.9-9-17.9-17.9-26.8-26.9C299.6,85.7,298.5,84.5,296.9,82.8z M346.9,127.2
	c4.6-2.4,8.8-4,12.3-6.5c3.3-2.3,5.5-2.1,8.7,0.2c3.5,2.4,7.6,3.9,12.1,6.2c-1.1-5.9-2.3-10.8-2.9-15.7c-0.2-1.4,0.9-3.2,1.9-4.3
	c3.6-3.6,7.4-7,11.9-11.2c-5.1-0.6-8.5-1.1-11.9-1.4c-5.6-0.3-9.1-2.9-11-8.3c-1.1-3.2-3-6.2-4.7-9.6c-2.4,4.8-4.6,9.4-7,13.8
	c-0.8,1.3-2.4,2.7-3.8,3c-5,1-10.1,1.6-16.2,2.5c4.4,4.2,8.2,7.7,11.6,11.4c1.1,1.1,1.8,3.2,1.6,4.7
	C349.1,116.9,348,121.6,346.9,127.2z"/>
<path d="M504.3,233.7c12.5,0,24.7,0,37.5,0c0-7.1,0-13.8,0-20.8c6.5,0,12.4,0,18.7,0c0,12.6,0,25.3,0,38.3c-18.6,0-37.3,0-56.3,0
	C504.3,245.6,504.3,240,504.3,233.7z"/>
<path d="M167.3,72.2c0-12.9,0-25.5,0-38.3c18.8,0,37.4,0,56.3,0c0,5.7,0,11.4,0,17.6c-12.4,0-24.7,0-37.5,0c0,7.1,0,13.7,0,20.7
	C179.7,72.2,173.7,72.2,167.3,72.2z"/>
<path d="M551.7,34c0,6,0,11.6,0,17.2c-0.7,0.2-1.1,0.4-1.6,0.4c-19.1,0-38.2,0-57.7,0c0-5.8,0-11.6,0-17.6C512,34,531.7,34,551.7,34
	z"/>
<path d="M407.7,207.4c-5.8,0-11.4,0-17.3,0c0-6,0-12,0-18.4c5.6,0,11.3,0,17.3,0C407.7,195,407.7,200.9,407.7,207.4z"/>
<path d="M372.7,207.4c-5.8,0-11.4,0-17.3,0c0-6.1,0-12.1,0-18.4c5.7,0,11.4,0,17.3,0C372.7,195,372.7,200.9,372.7,207.4z"/>
<path d="M320.4,188.9c6,0,11.5,0,17.3,0c0,6.1,0,12,0,18.3c-5.6,0-11.3,0-17.3,0C320.4,201.3,320.4,195.3,320.4,188.9z"/>
<path d="M104.7,192.4c-6.2,0-12.1,0-18.4,0c0-5.8,0-11.5,0-17.5c6.1,0,12.1,0,18.4,0C104.7,180.7,104.7,186.3,104.7,192.4z"/>
<path d="M51.2,192.2c0-5.8,0-11.4,0-17.3c6.2,0,12.2,0,18.5,0c0,5.7,0,11.3,0,17.3C63.8,192.2,57.8,192.2,51.2,192.2z"/>
<path d="M86.1,110.2c0-5.9,0-11.3,0-17.2c6.1,0,12.1,0,18.5,0c0,5.6,0,11.3,0,17.2C98.4,110.2,92.3,110.2,86.1,110.2z"/>
<path d="M51.2,110.3c0-5.9,0-11.5,0-17.4c6.1,0,12.2,0,18.5,0c0,5.8,0,11.5,0,17.4C63.6,110.3,57.7,110.3,51.2,110.3z"/>
<path d="M457.4,33.7c6.2,0,12,0,18.2,0c0,5.8,0,11.5,0,17.5c-5.9,0-12,0-18.2,0C457.4,45.4,457.4,39.6,457.4,33.7z"/>
<path d="M486.6,251.4c-5.8,0-11.4,0-17.2,0c0-5.9,0-11.5,0-17.5c5.7,0,11.3,0,17.2,0C486.6,239.5,486.6,245.2,486.6,251.4z"/>
<path d="M33.7,192.4c-5.8,0-11.4,0-17.3,0c0-5.7,0-11.4,0-17.4c5.7,0,11.4,0,17.3,0C33.7,180.6,33.7,186.2,33.7,192.4z"/>
<path d="M16.4,92.8c5.8,0,11.4,0,17.3,0c0,5.9,0,11.6,0,17.5c-5.7,0-11.3,0-17.3,0C16.4,104.7,16.4,99,16.4,92.8z"/>
<path d="M241.2,51.2c0-5.9,0-11.4,0-17.3c5.9,0,11.6,0,17.5,0c0,5.8,0,11.3,0,17.3C253.1,51.2,247.4,51.2,241.2,51.2z"/>
<path d="M238.7,364.5c3.1,5.3,6.1,10.4,9.3,16c-10.8,6.2-21.1,12.7-31.9,18.4c-5.4,2.8-8.1,6-7.3,12.4c0.7,5.5,0.1,11.2,0.1,17.1
	c-6,0-11.6,0-18,0c0-7.5,0.6-15.2-0.2-22.7c-1-9.6,1.3-16.1,10.9-20.6c11.6-5.4,22.4-12.7,33.6-19.1
	C236.2,365.4,237.3,365.1,238.7,364.5z"/>
<path d="M297.6,317.4c-5.8,0-11.4,0-17.3,0c0-10.5,0-20.9,0-31.5c5.7,0,11.3,0,17.3,0C297.6,296.2,297.6,306.5,297.6,317.4z"/>
<path d="M280.3,333.9c5.8,0,11.4,0,17.3,0c0,6,0,12,0,18.4c-5.6,0-11.3,0-17.3,0C280.3,346.2,280.3,340.1,280.3,333.9z"/>
<path d="M191.3,463.2c0-6.3,0-12.2,0-18.3c5.8,0,11.4,0,17.3,0c0,5.9,0,12,0,18.3C203,463.2,197.3,463.2,191.3,463.2z"/>
<path d="M140.7,379c0,6,0,11.6,0,17.4c-19.8,0-39.4,0-59.3,0c0-5.6,0-11.3,0-17.4C101,379,120.7,379,140.7,379z"/>
</svg>
