<?xml version="1.0" encoding="utf-8"?>
<!-- Generator: Adobe Illustrator 21.1.0, SVG Export Plug-In . SVG Version: 6.00 Build 0)  -->
<svg version="1.1" id="Слой_1" xmlns="http://www.w3.org/2000/svg" xmlns:xlink="http://www.w3.org/1999/xlink" x="0px" y="0px"
	 viewBox="0 0 512 519" style="enable-background:new 0 0 512 519;" xml:space="preserve">
<style type="text/css">
	.st0{clip-path:url(#SVGID_2_);}
	.st1{clip-path:url(#SVGID_4_);fill:#6C9FD5;}
	.st2{clip-path:url(#SVGID_6_);fill:#6C9FD5;}
	.st3{clip-path:url(#SVGID_6_);fill:#FFFFFF;}
	.st4{clip-path:url(#SVGID_8_);}
	.st5{clip-path:url(#SVGID_10_);fill:none;stroke:#6C9FD5;stroke-width:13;stroke-miterlimit:10;}
	.st6{clip-path:url(#SVGID_12_);fill:#FFFFFF;}
	.st7{clip-path:url(#SVGID_12_);fill:none;stroke:#6C9FD5;stroke-width:13;stroke-miterlimit:10;}
</style>
<g>
	<defs>
		<rect id="SVGID_1_" x="0.1" y="0.6" width="511.9" height="518.4"/>
	</defs>
	<clipPath id="SVGID_2_">
		<use xlink:href="#SVGID_1_"  style="overflow:visible;"/>
	</clipPath>
	<g class="st0">
		<defs>
			<rect id="SVGID_3_" width="512" height="519"/>
		</defs>
		<clipPath id="SVGID_4_">
			<use xlink:href="#SVGID_3_"  style="overflow:visible;"/>
		</clipPath>
		<path class="st1" d="M480.5,87.2H31.5C14.2,87.2,0,101.3,0,118.7v304.6c0,17.4,14.2,31.5,31.5,31.5h151.8l-6.1,49.1h-25.4
			c-4.1,0-7.5,3.4-7.5,7.5c0,4.1,3.4,7.5,7.5,7.5h208.4c4.1,0,7.5-3.4,7.5-7.5c0-4.1-3.4-7.5-7.5-7.5h-25.4l-6.1-49.1h151.8
			c17.4,0,31.5-14.2,31.5-31.5V118.7C512,101.3,497.8,87.2,480.5,87.2 M319.6,504H192.4l6.1-49.1h27.6l2.7,10.8
			c3.1,12.5,14.3,21.2,27.2,21.2c12.9,0,24.1-8.7,27.2-21.2l2.7-10.8h27.6L319.6,504z M241.6,454.9h28.9l-1.8,7.2
			c-1.5,5.8-6.7,9.9-12.6,9.9c-6,0-11.2-4.1-12.6-9.9L241.6,454.9z M497,423.3c0,9.1-7.4,16.5-16.5,16.5H31.5
			c-9.1,0-16.5-7.4-16.5-16.5V118.7c0-9.1,7.4-16.5,16.5-16.5h448.9c9.1,0,16.5,7.4,16.5,16.5V423.3z"/>
	</g>
</g>
<g>
	<defs>
		<rect id="SVGID_5_" width="512" height="519"/>
	</defs>
	<clipPath id="SVGID_6_">
		<use xlink:href="#SVGID_5_"  style="overflow:visible;"/>
	</clipPath>
	<path class="st2" d="M55.6,407.8h-8.5V134.2h377.3c4.1,0,7.5-3.4,7.5-7.5c0-4.1-3.4-7.5-7.5-7.5H39.6c-4.1,0-7.5,3.4-7.5,7.5v288.6
		c0,4.1,3.4,7.5,7.5,7.5h16c4.1,0,7.5-3.4,7.5-7.5C63.1,411.2,59.7,407.8,55.6,407.8"/>
	<path class="st2" d="M472.4,119.2h-16c-4.1,0-7.5,3.4-7.5,7.5c0,4.1,3.4,7.5,7.5,7.5h8.5v273.6H87.7c-4.1,0-7.5,3.4-7.5,7.5
		c0,4.1,3.4,7.5,7.5,7.5h384.8c4.1,0,7.5-3.4,7.5-7.5V126.7C479.9,122.6,476.6,119.2,472.4,119.2"/>
	<path class="st3" d="M388.1,7.1h-276c-6.6,0-12,5.4-12,12v385.7c0,6.6,5.4,12,12,12h276c6.6,0,12-5.4,12-12V19.1
		C400.1,12.5,394.7,7.1,388.1,7.1"/>
</g>
<g>
	<defs>
		<rect id="SVGID_7_" x="0.1" y="0.6" width="511.9" height="518.4"/>
	</defs>
	<clipPath id="SVGID_8_">
		<use xlink:href="#SVGID_7_"  style="overflow:visible;"/>
	</clipPath>
	<g class="st4">
		<defs>
			<rect id="SVGID_9_" width="512" height="519"/>
		</defs>
		<clipPath id="SVGID_10_">
			<use xlink:href="#SVGID_9_"  style="overflow:visible;"/>
		</clipPath>
		<path class="st5" d="M388.1,7.1h-276c-6.6,0-12,5.4-12,12v385.7c0,6.6,5.4,12,12,12h276c6.6,0,12-5.4,12-12V19.1
			C400.1,12.5,394.7,7.1,388.1,7.1z"/>
	</g>
</g>
<g>
	<defs>
		<rect id="SVGID_11_" width="512" height="519"/>
	</defs>
	<clipPath id="SVGID_12_">
		<use xlink:href="#SVGID_11_"  style="overflow:visible;"/>
	</clipPath>
	<path class="st6" d="M312.1,154.4c0,34.2-27.8,62-62,62c-34.2,0-62-27.8-62-62c0-34.2,27.8-62,62-62
		C284.3,92.4,312.1,120.2,312.1,154.4"/>
	<circle class="st7" cx="250.1" cy="154.4" r="62"/>
	<path class="st6" d="M162.6,306.1c0,0,76.1-106.8,175,1L162.6,306.1"/>
	<path class="st7" d="M162.6,306.1c0,0,76.1-106.8,175,1L162.6,306.1z"/>
</g>
</svg>
